<svg id="Layer_1" data-name="Layer 1" xmlns="http://www.w3.org/2000/svg" viewBox="0 0 94 94"><defs><style>.cls-1{fill:#1a1736;}.cls-2{fill:none;}.cls-3{fill:#bf814d;}.cls-4{fill:#ffac67;}.cls-5{fill:#006c2e;}.cls-6{fill:#338958;}.cls-7{fill:#362200;}.cls-8{fill:#c56873;}.cls-9{fill:#d1868f;}.cls-10{fill:#b74250;}.cls-11{fill:#a26e41;}.cls-12{fill:#885c37;}.cls-13{fill:#754f2f;}.cls-14{fill:#003617;}</style></defs><title>Sandwich-Image_v2</title><rect class="cls-1" width="94" height="94" rx="30"/><path class="cls-2" d="M69.51,34.72s0-.1,0-.14h0s0,.09,0,.14Z"/><path class="cls-2" d="M69.24,34.15h0l0,0Z"/><path class="cls-2" d="M69.5,74.16v0h0Z"/><path class="cls-2" d="M26.66,36.92v0Z"/><path class="cls-2" d="M26.9,37.69a3,3,0,0,1-.21-.64A3,3,0,0,0,26.9,37.69Z"/><path class="cls-2" d="M69.46,74a.14.14,0,0,0,0-.06h0a.14.14,0,0,1,0,.06Z"/><path class="cls-2" d="M27.3,38.36a4.47,4.47,0,0,1-.39-.65A4.47,4.47,0,0,0,27.3,38.36Z"/><path class="cls-2" d="M69.18,34.09l0,0,0,0Z"/><path class="cls-3" d="M69.51,74.25h0s0,0,0,.07S69.51,74.28,69.51,74.25Z"/><path class="cls-3" d="M69.49,74.12h0l0-.08h0Z"/><path class="cls-3" d="M72,74.79a1.28,1.28,0,0,1-.16.27l-.07.09a2.27,2.27,0,0,1-.31.31h0a3.73,3.73,0,0,1-.44.29l-.14.08a3.61,3.61,0,0,1-.44.22l-.13.06-.65.24-.16,0a13.19,13.19,0,0,1-1.71.39L45.2,80.52c-3.88.64-8.65,0-10.63-1.44l-4-2.93-3.68-.49L24.68,71.9,23.1,70.74a2.2,2.2,0,0,1-.36-.3l-.09-.1-.17-.21L22.41,70a1.76,1.76,0,0,1-.09-.2s0-.08,0-.11a1.52,1.52,0,0,1,0-.21s0,0,0-.08l-.06,3.08A1.67,1.67,0,0,0,23,73.82l11.48,8.34c2,1.43,6.74,2.08,10.63,1.44l22.62-3.73c2.73-.44,4.31-1.41,4.33-2.44l.06-3.07v0a1,1,0,0,1-.08.34A.15.15,0,0,1,72,74.79Z"/><path class="cls-3" d="M22.32,69.82a1.76,1.76,0,0,0,.09.2l.07.11.17.21.09.1a2.2,2.2,0,0,0,.36.3l1.58,1.16-2-3.39a1.34,1.34,0,0,0-.47,1,1.52,1.52,0,0,0,0,.21S22.31,69.78,22.32,69.82Z"/><path class="cls-3" d="M69.46,74l0,.08v0a.28.28,0,0,1,0,.09h0s0,0,0,.07a.85.85,0,0,1-.23.54,1.2,1.2,0,0,1-.2.18,2.85,2.85,0,0,1-.8.45,6.78,6.78,0,0,1-1.64.44l-7.81,1.29-6.28,1.91-2.94-.4L44,79.66c-2.59.42-5.77,0-7.09-1l-2.84-2.07-3.54-.48,4,2.93c2,1.44,6.75,2.08,10.63,1.44L67.82,76.8a13.19,13.19,0,0,0,1.71-.39l.16,0,.65-.24.13-.06a3.61,3.61,0,0,0,.44-.22l.14-.08a3.73,3.73,0,0,0,.44-.29h0a2.27,2.27,0,0,0,.31-.31l.07-.09a1.28,1.28,0,0,0,.16-.27.15.15,0,0,0,0-.07,1,1,0,0,0,.08-.34,1.43,1.43,0,0,0-.53-1.06L69.44,74A.14.14,0,0,1,69.46,74Z"/><path class="cls-4" d="M68.27,75.49a2.85,2.85,0,0,0,.8-.45,1.2,1.2,0,0,0,.2-.18.85.85,0,0,0,.23-.54s0,0,0-.07h0a.28.28,0,0,0,0-.09v0l0-.08a.14.14,0,0,0,0-.06L58.82,77.22l7.81-1.29A6.78,6.78,0,0,0,68.27,75.49Z"/><path class="cls-4" d="M44,79.66l5.59-.93-15.52-2.1,2.84,2.07C38.24,79.65,41.42,80.08,44,79.66Z"/><polygon class="cls-5" points="69.07 69.45 51.82 74.7 29.76 71.72 28.06 68.78 24.15 67.8 26.93 72.58 52.6 76.06 72.7 69.93 70.42 66 69.93 69.31 69.07 69.45"/><polygon class="cls-5" points="23.28 64.49 45.9 70.2 69.99 66.23 70.83 60.67 67.23 62.59 66.8 65.43 59.73 66.59 59.19 66.88 58.21 66.84 46.11 68.83 34.74 65.97 32.22 65.87 31.07 65.04 26.67 63.93 26.95 62.05 23.97 59.88 23.61 62.3 21.36 62.98 23.24 66.23 23.28 64.49"/><polygon class="cls-6" points="51.82 74.7 69.07 69.45 45.84 73.27 28.06 68.78 29.76 71.72 51.82 74.7"/><polygon class="cls-6" points="46.11 68.83 58.21 66.84 34.74 65.97 46.11 68.83"/><polygon class="cls-6" points="66.8 65.43 67.23 62.59 59.73 66.59 66.8 65.43"/><polygon class="cls-6" points="31.07 65.04 26.95 62.05 26.67 63.93 31.07 65.04"/><path class="cls-6" d="M68.62,55.17a1.57,1.57,0,0,1-.15.19c-.26.28-.6.65-.9.91l0,0,0,0,0,.05-.63.5a12.15,12.15,0,0,1-1.55,1c-.3.17-.63.32-.93.46l-.1.05-.86.37-.27.1c-.32.12-.65.25-1,.37a30.05,30.05,0,0,1-3.46.94c-.48.11-1,.21-1.52.3l-.61.11c-.62.11-1.66.26-3,.4l-.24,0-.33,0-.76.06h-.08c-1,.08-2,.12-2.77.15h-.14c-1.31,0-2.27,0-2.63,0-1,0-1.78-.06-2.42-.1S42.78,61,42,61l-.51-.05h-.11l-.8-.09-.26,0-1.06-.15-.72-.11-.47-.08L37,60.25l-.38-.07L35.87,60h0a34.68,34.68,0,0,1-4.74-1.36l-.1,0c-.2-.07-.59-.22-1.08-.43l-.06,0c-.3-.13-.64-.28-1-.45l5.47,4,23.17.86L70.2,55.79l-1.31-1-.2.27Z"/><path class="cls-6" d="M24.71,54.63l-.24-.31a4.77,4.77,0,0,1-.3-.42l-.31.16,1,.69,0,0Z"/><path class="cls-5" d="M59.25,63.8,74,55.93l-4.08-3-.07.16c-.06.13-.11.25-.17.36s0,0,0,.06a.91.91,0,0,0-.07.14l-.08.14a.41.41,0,0,1-.05.09,6.7,6.7,0,0,1-.42.7l-.15.21,1.31,1L57.53,62.55l-23.17-.86-5.47-4c-.48-.24-1-.51-1.47-.81A13.79,13.79,0,0,1,26.15,56l-.5-.42-.11-.1a7.27,7.27,0,0,1-.72-.75l-1-.69.31-.16a7.76,7.76,0,0,1-.46-.77,9.42,9.42,0,0,1-.42-.94l-3.23,1.73L32.28,62.8Z"/><polygon class="cls-5" points="73.94 59.01 74 55.93 59.25 63.8 32.28 62.8 20.06 53.92 20 56.99 23.97 59.88 26.95 62.05 31.07 65.04 32.22 65.87 34.74 65.97 58.21 66.84 59.19 66.88 59.73 66.59 67.23 62.59 70.83 60.67 69.99 66.23 45.9 70.2 23.28 64.49 23.24 66.23 21.36 62.98 21.3 66.06 22.72 68.51 24.68 71.9 26.86 75.66 30.54 76.16 34.08 76.63 49.6 78.73 52.54 79.13 58.82 77.22 69.44 73.98 69.44 73.98 71.62 73.32 72.64 73.01 72.7 69.93 52.6 76.06 26.93 72.58 24.15 67.8 28.06 68.78 45.84 73.27 69.07 69.45 69.93 69.31 70.42 66 71.26 60.44 73.94 59.01"/><path class="cls-7" d="M65.06,40.83c-.25.15-.51.3-.79.44C64.55,41.13,64.81,41,65.06,40.83Z"/><path class="cls-7" d="M28,39.1a7.65,7.65,0,0,1-.56-.62A7.65,7.65,0,0,0,28,39.1Z"/><path class="cls-7" d="M63.55,41.62l.55-.26c-.17.09-.36.17-.55.25Z"/><path class="cls-7" d="M28.85,39.85a8.6,8.6,0,0,1-.78-.64A8.6,8.6,0,0,0,28.85,39.85Z"/><path class="cls-7" d="M24.17,53.9a4.77,4.77,0,0,0,.3.42l.24.31.08.09,0,0a7.27,7.27,0,0,0,.72.75l.11.1.5.42a13.79,13.79,0,0,0,1.27.89c.48.3,1,.57,1.47.81s.69.32,1,.45l.06,0c.49.21.88.36,1.08.43l.1,0A34.68,34.68,0,0,0,35.86,60h0l.76.15.38.07,1.05.19.47.08.72.11,1.06.15.26,0,.8.09h.11L42,61c.79.08,1.46.12,2.1.16s1.46.08,2.42.1c.36,0,1.32,0,2.63,0h.14c.81,0,1.75-.07,2.77-.15h.08l.76-.06.33,0,.24,0c1.38-.14,2.42-.29,3-.4l.61-.11c.53-.09,1-.19,1.52-.3a30.05,30.05,0,0,0,3.46-.94c.36-.12.69-.25,1-.37l.27-.1.86-.37.1-.05c.3-.14.63-.29.93-.46a12.15,12.15,0,0,0,1.55-1l.63-.5,0-.05,0,0,0,0c.3-.26.64-.63.9-.91a1.57,1.57,0,0,0,.15-.19l.07-.07.2-.27.15-.21a6.7,6.7,0,0,0,.42-.7.41.41,0,0,0,.05-.09l.08-.14a.91.91,0,0,1,.07-.14s0,0,0-.06.11-.23.17-.36l.07-.16a.36.36,0,0,1,0-.09l0-.06c.06-.16.13-.35.19-.56l.06-.18c0-.17.1-.35.15-.55s0-.15.05-.23,0-.26.08-.4l0-.17a10.09,10.09,0,0,0,.14-1.32c0-.16,0-.31,0-.42l0-1.23a10.61,10.61,0,0,0-.9-4.7A8.4,8.4,0,0,0,68.48,41a6.67,6.67,0,0,0-.65-.66l-.07,0h0l0,1.57c0,2.68-4.17,5.19-11.26,6.36-10.13,1.66-22.55,0-27.69-3.75-1.53-1.12-2.25-2.29-2.22-3.43l0-2.21c-.26.19-.46.35-.6.47a8.63,8.63,0,0,0-2.43,3.2,10.42,10.42,0,0,0-.64,2,12.28,12.28,0,0,0-.26,2.28,3.2,3.2,0,0,0,.05.61h0a3.2,3.2,0,0,1-.05-.61l0,1.23c0,.25,0,.52,0,.8,0,.1,0,.2,0,.31,0,.31.06.64.11,1,0,.06,0,.15,0,.27s.1.47.16.71a2,2,0,0,0,.07.26v0c0,.08,0,.16.07.23l0,.16a.42.42,0,0,0,0,.1l.1.3a9.42,9.42,0,0,0,.42.94A7.76,7.76,0,0,0,24.17,53.9Z"/><path class="cls-8" d="M63,41.85l.51-.23h0Z"/><path class="cls-9" d="M58.7,43.17h0Z"/><path class="cls-9" d="M59.64,41.71l.2-.07h0l-.2.07Z"/><path class="cls-8" d="M61.77,42.32c.33-.11.66-.23,1-.36C62.43,42.09,62.1,42.21,61.77,42.32Z"/><path class="cls-8" d="M58.74,43.16h0c.38-.09.74-.17,1.09-.27C59.48,43,59.11,43.08,58.74,43.16Z"/><path class="cls-8" d="M60.1,42.83c.47-.12.92-.26,1.35-.4C61,42.57,60.57,42.71,60.1,42.83Z"/><path class="cls-8" d="M58.59,43.2l.11,0h0Z"/><path class="cls-8" d="M56.53,43.6c.57-.09,1.11-.2,1.63-.31C57.64,43.4,57.1,43.51,56.53,43.6Z"/><path class="cls-10" d="M59.84,41.64l-.2.07-.08,0a28.55,28.55,0,0,1-4.22,1c-.58.1-1.16.18-1.76.25-1.17.14-2.37.23-3.58.28l-4.86.8-.49.07c1.32.08,2.66.12,4,.11a50.76,50.76,0,0,0,7.87-.64c.57-.09,1.11-.2,1.63-.31l.43-.09.11,0h0c.37-.08.74-.16,1.09-.26l.27-.07c.47-.12.92-.26,1.35-.4l.32-.11c.33-.11.66-.23,1-.36l.3-.11.51-.24h0c.19-.08.38-.16.55-.25l.17-.09c.28-.14.54-.29.79-.44l.11-.07Z"/><path class="cls-10" d="M26.67,36.92v0s0,.08,0,.11a3,3,0,0,0,.21.64v0a4.47,4.47,0,0,0,.39.65l.09.12a7.65,7.65,0,0,0,.56.62l.12.11a8.6,8.6,0,0,0,.78.64,16,16,0,0,0,3.59,1.88c.51.19,1.05.38,1.61.56Z"/><path class="cls-8" d="M53.58,43c.6-.07,1.18-.15,1.76-.25a28.55,28.55,0,0,0,4.22-1l.08,0h0l.2-.07L50,43.26C51.21,43.21,52.41,43.12,53.58,43Z"/><path class="cls-10" d="M28.75,44.52c5.14,3.73,17.56,5.41,27.69,3.75,7.09-1.17,11.21-3.68,11.26-6.36l0-1.57-2.57.42-.11.07c-.25.15-.51.3-.79.44l-.17.09-.55.26h0l-.51.23-.3.11c-.31.13-.64.25-1,.36l-.32.11c-.43.14-.88.28-1.35.4l-.27.07c-.35.1-.71.18-1.09.27h0l-.11,0-.43.09c-.52.11-1.06.22-1.63.31a50.76,50.76,0,0,1-7.87.64c-1.35,0-2.69,0-4-.11-3.8.51-8.25-.14-10.14-1.51l-.46-.33c-.56-.18-1.1-.37-1.61-.56a16,16,0,0,1-3.59-1.88,8.6,8.6,0,0,1-.78-.64L28,39.1a7.65,7.65,0,0,1-.56-.62l-.09-.12a4.47,4.47,0,0,1-.39-.65v0a3,3,0,0,1-.21-.64s0-.07,0-.11v0l-.05,0,0,2,0,2.21C26.5,42.23,27.22,43.4,28.75,44.52Z"/><path class="cls-3" d="M26.67,36.92l7.38,5.37.46.33c1.89,1.37,6.34,2,10.14,1.51l.49-.07,4.86-.8,9.84-1.62h0l5.33-.88,2.57-.42h0l.07,0c2.68-.45,4.24-1.41,4.26-2.43l.06-3.07v0a1.67,1.67,0,0,0-.85-1.34L59.82,25.16c-2-1.42-6.64-2.06-10.51-1.45l-.11,1.07,1.18-.19a12.15,12.15,0,0,1,2-.16,9.48,9.48,0,0,1,5.07,1.12l8.34,6.06,3.13,2.28a1.42,1.42,0,0,1,.22.18l0,0h0l.06.06h0l0,0a.87.87,0,0,1,.09.11.35.35,0,0,1,.05.08.75.75,0,0,1,.06.13l0,.08h0s0,.09,0,.14h0v.06h0a.64.64,0,0,1-.05.23h0a.08.08,0,0,1,0,0h0a.87.87,0,0,1-.11.18h0l0,.06h0l-.21.21h0a1.64,1.64,0,0,1-.29.2h0l-.09,0h0l-.11.07a6.9,6.9,0,0,1-2,.57L44,40.12a13.33,13.33,0,0,1-2,.16,9.67,9.67,0,0,1-5.07-1.12L25.45,30.82c-1.32-1-.28-2.08,2.31-2.51l17.64-2.9.11-1.08L26.57,27.44c-2.79.46-4.38,1.46-4.32,2.52,0,0,0-.05,0-.07L22.18,33A1.67,1.67,0,0,0,23,34.28l3.58,2.6.05,0Z"/><path class="cls-4" d="M48.59,31l-1.15,1-.77.67-.19.16L46,32,44.91,30.4l.49-5-17.64,2.9c-2.59.43-3.63,1.55-2.31,2.51l11.47,8.34A9.67,9.67,0,0,0,42,40.28a13.33,13.33,0,0,0,2-.16l22.62-3.73a6.9,6.9,0,0,0,2-.57l.11-.07h0l.09,0a1.64,1.64,0,0,0,.29-.2h0l.21-.21,0-.06h0a.87.87,0,0,0,.11-.18.08.08,0,0,0,0,0h0a.64.64,0,0,0,.05-.23v-.06s0-.1,0-.14l0-.08a.75.75,0,0,0-.06-.13.35.35,0,0,0-.05-.08.87.87,0,0,0-.09-.11l0,0-.06-.06,0,0a1.42,1.42,0,0,0-.22-.18l-3.13-2.28-8.34-6.06a9.48,9.48,0,0,0-5.07-1.12,12.15,12.15,0,0,0-2,.16l-1.18.19Z"/><polygon class="cls-4" points="69.29 35.29 69.29 35.29 69.29 35.29 69.29 35.29"/><polygon class="cls-4" points="69.44 35.05 69.44 35.05 69.44 35.05 69.44 35.05"/><polygon class="cls-4" points="69.51 34.78 69.51 34.78 69.51 34.78 69.51 34.78"/><polygon class="cls-4" points="68.78 35.7 68.78 35.7 68.78 35.7 68.78 35.7"/><path class="cls-11" d="M47.66,22.56l-1,10.05.77-.67,1.15-1,.61-6.17.11-1.07.11-1.17A9.38,9.38,0,0,1,47.66,22.56Z"/><polygon class="cls-11" points="48.6 13.04 48.6 13.04 50.4 12.57 50.41 12.57 51.02 6.36 49.23 6.68 48.6 13.04"/><polygon class="cls-12" points="51.02 6.36 49.1 5.74 47.31 6.05 49.23 6.68 51.02 6.36"/><polygon class="cls-13" points="48.6 13.04 49.23 6.68 47.31 6.05 46.73 11.91 46.74 11.91 48.6 13.04"/><path class="cls-13" d="M44.91,30.4,46,32l.49.74.19-.16,1-10c-.31,0-.62-.06-.93-.12s-.68-.15-1-.24l-.21,2.13-.11,1.08Z"/><path class="cls-14" d="M44.14,13.4c-1.23-.33-2.57.68-3,2.27s.23,3.13,1.46,3.46,2.57-.69,3-2.27S45.37,13.73,44.14,13.4Z"/><path class="cls-5" d="M47.66,22.56a9.38,9.38,0,0,0,1.76,0c2.78-.29,5-1.82,5.37-4,.43-2.39-1.45-4.81-4.38-5.94h0L48.6,13h0l-1.86-1.13h0C43.57,12,41,13.57,40.52,16c-.46,2.61,1.81,5.24,5.2,6.22.33.09.66.18,1,.24S47.35,22.53,47.66,22.56Zm-2.06-5.7c-.42,1.58-1.76,2.6-3,2.27s-1.89-1.88-1.46-3.46,1.76-2.6,3-2.27S46,15.28,45.6,16.86Z"/></svg>