<svg id="Layer_1" data-name="Layer 1" xmlns="http://www.w3.org/2000/svg" viewBox="0 0 94 94"><defs><style>.cls-1{fill:#1a1736;}.cls-2{fill:#b74250;stroke-width:3px;}.cls-2,.cls-3{stroke:#b74250;stroke-miterlimit:10;}.cls-3{fill:#f1d9dc;}.cls-4{fill:#5c2128;}.cls-5{fill:#482d00;}.cls-6{fill:#006c2e;}</style></defs><title>Placeholder-Image_v1</title><rect class="cls-1" width="94" height="94" rx="30"/><path class="cls-2" d="M72.35,45.61c0-13.08-6.42-20.54-19.12-21-3.37-.12-3.93,1.57-6.47,1.57s-3.09-1.69-5.9-1.61c-13,.35-19.68,7.73-19.68,21A37.3,37.3,0,0,0,25.8,62.52a20,20,0,0,0-.12,2.2c0,9.16,5.94,16.59,13.26,16.59a11.47,11.47,0,0,0,7.43-2.84h.24A11.43,11.43,0,0,0,54,81.31c7.33,0,13.27-7.43,13.27-16.59,0-.33,0-.66,0-1A38.74,38.74,0,0,0,72.35,45.61Z"/><path class="cls-3" d="M34.62,29.85a9.32,9.32,0,0,0-5.5-2.06c-5.25,3.39-7.94,9.43-7.94,17.82a34.9,34.9,0,0,0,2.56,12.44,12.68,12.68,0,0,0,2.75.13,65.56,65.56,0,0,0,7-.55c4.38-.59,9-2.21,11.33-6.28s1.4-8.94-1-12.61S38,32.35,34.62,29.85Z"/><path class="cls-4" d="M52.67,29.48a9,9,0,0,0-3.32-1.28L49,28c-.28-.15-.66-.3-.32-.58A4,4,0,0,1,50.13,27a.85.85,0,0,0-.45-1.63,4,4,0,0,0-2.54,1.23A1.81,1.81,0,0,0,47,28.46a4.12,4.12,0,0,0-.79.38,2,2,0,0,0-.39-1.49A.87.87,0,0,0,45.15,26,10.73,10.73,0,0,0,40,27.2c-.91.47-.23,1.68.65,1.54a14.1,14.1,0,0,1,3.84-.11v.1c0,.34,0,.68,0,1,0,.68-.07,1.35-.13,2-.1,1.08,1.58,1.07,1.68,0a2.41,2.41,0,0,1,2-1.88,3.41,3.41,0,0,1,.78-.05c.4.19.82.35,1.2.53.91.42,1.9,1.16,2.82.44A.85.85,0,0,0,52.67,29.48Z"/><path class="cls-5" d="M60.2,13a7.8,7.8,0,0,0-4.92.43,15.2,15.2,0,0,0-6.85,5.7c-.3.45-.55.91-.8,1.37C46.21,22.75,45,28,45.2,28.21c.07.85,2.12,1.15,2.46.2a23.68,23.68,0,0,0,.74-2.64,27.55,27.55,0,0,1,3.32-5.51,8.48,8.48,0,0,1,3.79-2.73c.87-.33,1.8-.59,2.71-.88a13.37,13.37,0,0,0,2.59-.89C62.2,15,61.83,13.58,60.2,13Z"/><path class="cls-6" d="M43.6,20.39a7.31,7.31,0,0,0,5.57-1.21c.47-.27.06-1.2-.83-1.58l-.29-.14a2,2,0,0,0-.17-.31,12.85,12.85,0,0,0-5.18-3.92A6.78,6.78,0,0,0,37.3,13a7,7,0,0,0-1.75,1.1.9.9,0,0,0-.13,1.23,4.93,4.93,0,0,0,1.34,1.36C38.87,18.33,41.24,20,43.6,20.39Z"/></svg>