<svg id="Layer_1" data-name="Layer 1" xmlns="http://www.w3.org/2000/svg" viewBox="0 0 94 94"><defs><style>.cls-1{fill:#1a1736;}.cls-2{fill:#c6ac50;}.cls-3{fill:#d9bc58;}.cls-4{fill:#b74250;}.cls-5{fill:#995159;}.cls-6{fill:#a85962;}.cls-7{fill:#bcb3aa;}.cls-8{fill:#cec4ba;}</style></defs><title>Cake-Image_v1</title><rect class="cls-1" width="94" height="94" rx="30"/><polygon class="cls-2" points="19.18 73.53 19.18 73.15 19.15 73.17 19.18 83 79 57.3 78.97 47.84 19.18 73.53"/><polygon class="cls-3" points="19.18 73.08 19.15 73.17 19.18 73.15 19.18 73.08"/><path class="cls-4" d="M24.36,70.2a1.5,1.5,0,0,0-1.06-.44,1.56,1.56,0,0,0-1.06.44,1.67,1.67,0,0,0-.33.54,1.25,1.25,0,0,0-.43-.07,1.53,1.53,0,0,0-1.5,1.5v4.7a1.5,1.5,0,0,0,3,0v-1.8a1.22,1.22,0,0,0,.32,0,1.5,1.5,0,0,0,1.5-1.5V71.26A1.52,1.52,0,0,0,24.36,70.2Z"/><path class="cls-4" d="M34.33,66.25a1.34,1.34,0,0,0-.8-.79,1,1,0,0,0-.57-.13l-.4,0a1.39,1.39,0,0,0-.66.39l-.24.3a1.54,1.54,0,0,0-.17.51,1.47,1.47,0,0,0-.75-.21,1.5,1.5,0,0,0-1.06.44,1.52,1.52,0,0,0-.43,1h0a1.27,1.27,0,0,0-.58-.13l-.4.06a1.57,1.57,0,0,0-.66.38l-.23.31a1.42,1.42,0,0,0-.21.75v1.31a1.17,1.17,0,0,0,.13.58,1.24,1.24,0,0,0,.31.48,1.14,1.14,0,0,0,.48.31,1.17,1.17,0,0,0,.58.13l.4-.06a1.42,1.42,0,0,0,.65-.37,1.5,1.5,0,0,0,1,.43,1.54,1.54,0,0,0,1.06-.44,1.56,1.56,0,0,0,.44-1.06v-1l.14.06a1.06,1.06,0,0,0,.58.13l.4,0a1.49,1.49,0,0,0,.66-.39l.23-.3a1.48,1.48,0,0,0,.21-.76v-1.3A1.27,1.27,0,0,0,34.33,66.25Z"/><path class="cls-4" d="M44.19,62.11a1.56,1.56,0,0,0-1.06-.44,1.54,1.54,0,0,0-1.06.44,1.58,1.58,0,0,0-.41.8,1.46,1.46,0,0,0-.75-.19,1.36,1.36,0,0,0-1.37,1,1.23,1.23,0,0,0-.4-.23,1,1,0,0,0-.57-.13l-.4.05a1.47,1.47,0,0,0-.67.39,1.58,1.58,0,0,0-.43,1.06v1.56a1.14,1.14,0,0,0,.12.58,1.32,1.32,0,0,0,.8.8,1.14,1.14,0,0,0,.58.12l.39-.05a1.54,1.54,0,0,0,.67-.38,1.59,1.59,0,0,0,.44-1.07v-1a1.4,1.4,0,0,0,.84.26,1.48,1.48,0,0,0,.72-.18v.37A1.54,1.54,0,0,0,42.07,67a1.52,1.52,0,0,0,1.06.44A1.46,1.46,0,0,0,44.19,67a1.54,1.54,0,0,0,.44-1.06V63.17A1.58,1.58,0,0,0,44.19,62.11Z"/><path class="cls-4" d="M59.22,54.67a1.36,1.36,0,0,0-1.23.67,1.25,1.25,0,0,0-.28-.15,1.14,1.14,0,0,0-.58-.12,1.49,1.49,0,0,0-1.06.43,1.59,1.59,0,0,0-.44,1.07v1.82a1.54,1.54,0,0,0,.44,1.06,1.14,1.14,0,0,0,.48.31,1.06,1.06,0,0,0,.58.13,1.5,1.5,0,0,0,1.06-.44,1.54,1.54,0,0,0,.44-1.06v-.83a1.55,1.55,0,0,0,.59.11A1.5,1.5,0,0,0,59.22,54.67Z"/><path class="cls-4" d="M64.43,52.85a1.5,1.5,0,0,0,0,3A1.5,1.5,0,0,0,64.43,52.85Z"/><path class="cls-4" d="M77.5,47.55a1.51,1.51,0,0,0-2.13,0,1.62,1.62,0,0,0-.4.75l0,0a1.17,1.17,0,0,0-.58-.13l-.4.06a1.45,1.45,0,0,0-.66.38l-.24.31a2.17,2.17,0,0,0-.15.35,1,1,0,0,0-.38,0,1.49,1.49,0,0,0-1.06.43,1.65,1.65,0,0,0-.3.46,1.74,1.74,0,0,0-1-.37l-.39.05a1.47,1.47,0,0,0-.67.39l-.23.3a1.45,1.45,0,0,0-.21.76v1.43a1.27,1.27,0,0,0,.13.58,1.34,1.34,0,0,0,.8.79,1,1,0,0,0,.57.13l.4,0a1.39,1.39,0,0,0,.66-.39l0,0a1.21,1.21,0,0,0,.21.28,1.52,1.52,0,0,0,1.06.44A1.46,1.46,0,0,0,73.58,54,1.54,1.54,0,0,0,74,52.91V52a1.19,1.19,0,0,0,.33,0l.4-.06a1.45,1.45,0,0,0,.22-.09,1.48,1.48,0,0,0,1.46,1.19,1.49,1.49,0,0,0,1.5-1.5v-3A1.53,1.53,0,0,0,77.5,47.55Z"/><path class="cls-4" d="M52.15,59a1.56,1.56,0,0,0-1.06-.44A1.54,1.54,0,0,0,50,59a1.58,1.58,0,0,0-.42.87,1.5,1.5,0,1,0-.87,2.74,1.41,1.41,0,0,0,.85-.26,1.55,1.55,0,0,0,.44,1,1.5,1.5,0,0,0,1.06.44,1.52,1.52,0,0,0,1.06-.44,1.54,1.54,0,0,0,.44-1.06V60A1.56,1.56,0,0,0,52.15,59Z"/><polygon class="cls-5" points="19.18 73.53 78.97 47.84 79 47.83 78.99 44.28 19.19 69.98 19.17 63.69 19.15 63.69 19.18 73.08 19.18 73.15 19.18 73.53"/><polygon class="cls-6" points="19.17 63.65 19.15 63.69 19.17 63.69 19.17 63.65"/><polygon class="cls-2" points="19.19 69.98 78.99 44.28 79 44.28 78.97 34.82 19.18 60.51 19.18 60.13 19.16 60.14 19.17 63.65 19.17 63.69 19.19 69.98"/><polygon class="cls-3" points="19.18 60.06 19.16 60.14 19.18 60.13 19.18 60.06"/><path class="cls-4" d="M27.4,56.11a1.56,1.56,0,0,0-1.06-.44,1.54,1.54,0,0,0-1.06.44,1.6,1.6,0,0,0-.29.44.75.75,0,0,0-.13-.06,1.06,1.06,0,0,0-.58-.13l-.4,0a1.49,1.49,0,0,0-.66.39l-.23.3a1.68,1.68,0,0,0-.15.34,1.11,1.11,0,0,0-.51-.1,1.46,1.46,0,0,0-1.06.44,1.54,1.54,0,0,0-.44,1.06v2A1.5,1.5,0,0,0,21.27,62a1,1,0,0,0,.48.31,1.06,1.06,0,0,0,.58.13A1.52,1.52,0,0,0,23.39,62a1.54,1.54,0,0,0,.44-1.06v-.64a1.13,1.13,0,0,0,.45.09l.4-.06.19-.08A1.5,1.5,0,0,0,27.4,61a1.54,1.54,0,0,0,.44-1.06V57.17A1.58,1.58,0,0,0,27.4,56.11Z"/><path class="cls-4" d="M34.36,52.15a1.36,1.36,0,0,0-1.34.92,1.17,1.17,0,0,0-.32,0l-.4.06a1.45,1.45,0,0,0-.66.38,1.58,1.58,0,0,0-.44,1.06V56a1.14,1.14,0,0,0,.12.58,1.27,1.27,0,0,0,.32.48,1,1,0,0,0,.48.31,1.15,1.15,0,0,0,.58.13l.39,0a1.47,1.47,0,0,0,.67-.39A1.54,1.54,0,0,0,34.2,56v-.86h.16A1.5,1.5,0,0,0,34.36,52.15Z"/><path class="cls-4" d="M45,49a1.34,1.34,0,0,0-.79-.8,1.27,1.27,0,0,0-.58-.13l-.4.06a1.57,1.57,0,0,0-.66.38l-.23.31a1.67,1.67,0,0,0-.17.44h-.1a1.56,1.56,0,0,0-.86.27,1.54,1.54,0,0,0-.23-.32,1.51,1.51,0,0,0-2.13,0,1.54,1.54,0,0,0-.44,1.06v2.25a1.5,1.5,0,0,0,1.5,1.5,1.7,1.7,0,0,0,.76-.21,1.42,1.42,0,0,0,.34.55,1.5,1.5,0,0,0,1.06.44,1.52,1.52,0,0,0,1.06-.44,1.54,1.54,0,0,0,.44-1.06V52.11h.06l.4,0a1.47,1.47,0,0,0,.66-.39l.24-.3a1.57,1.57,0,0,0,.2-.76V49.54A1,1,0,0,0,45,49Z"/><path class="cls-4" d="M52.46,45.93a1.24,1.24,0,0,0-.31-.48A1.72,1.72,0,0,0,51.09,45l-.4.05a1.47,1.47,0,0,0-.66.39l-.05.06a1.35,1.35,0,0,0-.75-.21,1.5,1.5,0,0,0,0,3,1.72,1.72,0,0,0,.47-.07l0,0a1.34,1.34,0,0,0,.79.8,1.14,1.14,0,0,0,.58.12l.4,0a1.57,1.57,0,0,0,.66-.38l.23-.31a1.43,1.43,0,0,0,.21-.76V46.51A1.27,1.27,0,0,0,52.46,45.93Z"/><path class="cls-4" d="M59.79,42.22a1.34,1.34,0,0,0-.79-.8,1.27,1.27,0,0,0-.58-.13l-.39.06a1.54,1.54,0,0,0-.67.38l-.23.31c0,.05,0,.1-.07.15l-.2,0-.4.06a1.49,1.49,0,0,0-1.1,1.44v1.47a1.06,1.06,0,0,0,.13.58,1.36,1.36,0,0,0,.79.79,1.06,1.06,0,0,0,.58.13l.4,0a1.49,1.49,0,0,0,.66-.39,1.54,1.54,0,0,0,.44-1.06v-.66h.06l.4-.05a1.47,1.47,0,0,0,.66-.39l.24-.3a1.57,1.57,0,0,0,.2-.76v-.2A1,1,0,0,0,59.79,42.22Z"/><path class="cls-4" d="M65.27,38.85a1.6,1.6,0,0,0-1,.38l-.11-.06a1.27,1.27,0,0,0-.58-.13l-.4.06a1.57,1.57,0,0,0-.66.38l-.24.31a1.5,1.5,0,0,0-.2.75v1.08a1.06,1.06,0,0,0,.13.58,1.14,1.14,0,0,0,.31.48A1,1,0,0,0,63,43a1.15,1.15,0,0,0,.58.13l.16,0V45a1.5,1.5,0,0,0,3,0v-4.6A1.51,1.51,0,0,0,65.27,38.85Z"/><path class="cls-4" d="M74.37,36.54a1.08,1.08,0,0,0-.31-.48,1.14,1.14,0,0,0-.48-.31,1.06,1.06,0,0,0-.58-.13l-.4.05a1.49,1.49,0,0,0-.66.39l-.15.19a1.65,1.65,0,0,0-.94-.34l-.4.06a1.45,1.45,0,0,0-.66.38l-.24.31a1.5,1.5,0,0,0-.2.75v1.27a1.06,1.06,0,0,0,.13.58,1.34,1.34,0,0,0,.79.8,1.14,1.14,0,0,0,.58.12l.4,0a1.57,1.57,0,0,0,.66-.38l.15-.2a1.1,1.1,0,0,0,.36.21,1.06,1.06,0,0,0,.58.13l.4,0a1.49,1.49,0,0,0,.66-.39l.24-.3a1.57,1.57,0,0,0,.2-.76V37.12A1.15,1.15,0,0,0,74.37,36.54Z"/><path class="cls-4" d="M77.4,34a1.5,1.5,0,0,0,0,3A1.5,1.5,0,0,0,77.4,34Z"/><polygon class="cls-5" points="19.18 60.51 78.97 34.82 79 34.81 78.98 31.26 19.19 56.96 19.17 50.67 19.15 50.67 19.18 60.06 19.18 60.13 19.18 60.51"/><polygon class="cls-6" points="19.17 50.63 19.15 50.67 19.17 50.67 19.17 50.63"/><polygon class="cls-3" points="19.16 47.1 19.16 47.12 19.16 47.12 19.16 47.1"/><polygon class="cls-7" points="78.97 21.42 78.99 28.89 79 28.89 78.97 19.06 19.16 44.76 19.16 47.1 19.16 47.12 78.97 21.42"/><path class="cls-8" d="M79,19.06c-12.39-5.12-31.53-7.21-49.33-5.47L19.16,44.76Z"/><polygon class="cls-2" points="19.19 56.96 78.98 31.26 79 31.26 78.99 28.89 78.97 21.42 19.16 47.12 19.16 47.12 19.17 50.63 19.17 50.67 19.19 56.96"/></svg>