<svg id="Layer_1" data-name="Layer 1" xmlns="http://www.w3.org/2000/svg" viewBox="0 0 94 94"><defs><style>.cls-1{fill:#1a1736;}.cls-2{fill:none;}.cls-3{fill:#25190f;}.cls-4{fill:#2e1f13;}.cls-5{fill:#302013;}.cls-6{fill:#20160d;}.cls-7{fill:#1f150d;}.cls-8{fill:#2b1d11;}.cls-9{fill:#2a1c11;}.cls-10{fill:#281b10;}.cls-11{fill:#271a10;}.cls-12{fill:#2d1e12;}.cls-13{fill:#22170e;}.cls-14{fill:#2f2013;}.cls-15{fill:#322214;}.cls-16{fill:#543922;}.cls-17{fill:#432e1b;}.cls-18{fill:#19110a;}.cls-19{fill:#18110a;}.cls-20{fill:#3f2b1a;}.cls-21{fill:#3d2a19;}.cls-22{fill:#3c2818;}.cls-23{fill:#302114;}.cls-24{fill:#432d1b;}.cls-25{fill:#24190f;}.cls-26{fill:#3a2717;}.cls-27{fill:#1a120b;}.cls-28{fill:#1b120b;}.cls-29{fill:#1c130c;}.cls-30{fill:#1e140c;}.cls-31{fill:#1d140c;}.cls-32{fill:#2a1d11;}.cls-33{fill:#8a8683;}.cls-34{fill:#8a8783;}.cls-35{fill:#c3bdb9;}.cls-36{fill:#3f2b19;}.cls-37{fill:#2d1f12;}.cls-38{fill:#73706e;}.cls-39{fill:#706d6a;}</style></defs><title>Meat-Image_v1</title><rect class="cls-1" width="94" height="94" rx="30"/><path class="cls-2" d="M31.64,29.65h0l-.35.15.13-.05Z"/><path class="cls-2" d="M17.21,68.51l0,0Z"/><polygon class="cls-2" points="15.85 45.13 15.85 45.13 15.85 45.13 15.85 45.13"/><path class="cls-2" d="M59.12,38.24s0,0,0,0a.91.91,0,0,0-.35-.29A1,1,0,0,1,59.12,38.24Z"/><path class="cls-2" d="M32.64,29.3h0c-.28.08-.56.18-.85.29h0C32.09,29.47,32.37,29.38,32.64,29.3Z"/><path class="cls-2" d="M18.39,69.44l-.19-.15Z"/><path class="cls-2" d="M32.68,27.83l0,.07h0Z"/><path class="cls-2" d="M12.17,53.17h0l0,0h0l.06,0,.17-.07.15-.06,0,0h0a1.39,1.39,0,0,0-.63.34l.08-.07A.46.46,0,0,1,12.17,53.17Z"/><path class="cls-2" d="M40.43,25.22Z"/><path class="cls-2" d="M39.71,25.61l-.07.05.07-.05Z"/><polygon class="cls-2" points="40.87 25.21 40.87 25.21 40.87 25.21 40.87 25.21"/><path class="cls-2" d="M11.92,53.4a.73.73,0,0,0-.09.08.73.73,0,0,1,.09-.08Z"/><polygon class="cls-2" points="15.97 63.79 15.97 63.78 15.97 63.78 15.97 63.79 15.97 63.79"/><path class="cls-2" d="M16,63.81v0h0Z"/><path class="cls-2" d="M29.79,29.61h0a1,1,0,0,0-.33-.26A1,1,0,0,1,29.79,29.61Z"/><path class="cls-2" d="M21.67,35.57h0a1.12,1.12,0,0,0,.08.26h0A1.12,1.12,0,0,1,21.67,35.57Z"/><path class="cls-2" d="M21.65,35.41s0,0,0,.07h0S21.65,35.43,21.65,35.41Z"/><polygon class="cls-2" points="60.72 38.24 61.96 40.41 61.96 40.41 60.72 38.24"/><path class="cls-2" d="M40,25.38Z"/><path class="cls-2" d="M16.19,67.52l.1.09-.17-.18Z"/><path class="cls-2" d="M30.82,30l0,0-.36.19.26-.14Z"/><path class="cls-2" d="M16.24,63.33l0,0a1.44,1.44,0,0,0-.18.25.33.33,0,0,1,.06-.1Z"/><path class="cls-3" d="M32.82,28.11h0a1.15,1.15,0,0,0,.14.17h0A1.15,1.15,0,0,1,32.82,28.11Z"/><path class="cls-3" d="M32.71,27.9h0a.89.89,0,0,0,.08.17h0A.89.89,0,0,1,32.71,27.9Z"/><path class="cls-4" d="M29.87,29.72l-.07-.09h0Z"/><path class="cls-5" d="M29.8,29.63h0v0h0Z"/><path class="cls-6" d="M33,28.28h0Z"/><path class="cls-7" d="M32.79,28.07h0l0,0h0Z"/><path class="cls-8" d="M33.15,29.16h0c-.12,0-.24.07-.37.1h0C32.91,29.23,33,29.18,33.15,29.16Z"/><path class="cls-9" d="M31.81,29.58h0l-.1,0h0Z"/><path class="cls-9" d="M32.78,29.26h0l-.14,0h0Z"/><path class="cls-10" d="M31.69,29.63h-.05Z"/><path class="cls-10" d="M31.43,29.74l-.13.05-.44.2,0,0Z"/><path class="cls-10" d="M30.76,30l-.26.14-.38.19h0Z"/><path class="cls-11" d="M30.12,30.38h0l-.12.07h0Z"/><path class="cls-4" d="M40.87,25.21h0a.69.69,0,0,0-.2,0h0A.69.69,0,0,1,40.87,25.21Z"/><path class="cls-12" d="M40.67,25.22Z"/><path class="cls-8" d="M40.41,25.23h0l-.08,0h0Z"/><path class="cls-8" d="M40.49,25.22h0s0,0-.06,0h0S40.47,25.23,40.49,25.22Z"/><path class="cls-9" d="M40.33,25.26h0a.94.94,0,0,0-.15.06h0A.94.94,0,0,1,40.33,25.26Z"/><path class="cls-10" d="M40.18,25.32h0a.85.85,0,0,0-.17.06h0A.85.85,0,0,1,40.18,25.32Z"/><polygon class="cls-11" points="40.01 25.38 40.01 25.38 40 25.38 40 25.38 40.01 25.38"/><path class="cls-11" d="M40,25.39h0a.88.88,0,0,0-.15.12h0A1.58,1.58,0,0,1,40,25.39Z"/><path class="cls-3" d="M39.84,25.51h0l-.13.1h0Z"/><path class="cls-12" d="M44.39,23.21h0c.24,0,.45-.06.66-.08C44.83,23.15,44.61,23.17,44.39,23.21Z"/><path class="cls-3" d="M21.75,35.83h0l.05.1h0Z"/><path class="cls-3" d="M21.66,35.48h0s0,.06,0,.09h0S21.66,35.51,21.66,35.48Z"/><polygon class="cls-13" points="34.98 28.74 34.81 28.72 34.98 28.74 34.98 28.74 34.98 28.74"/><polygon class="cls-14" points="34.98 28.74 34.98 28.74 33.15 29.16 33.15 29.16 34.98 28.74"/><path class="cls-5" d="M41.37,25.43a1,1,0,0,0-.16-.12l-.17,0,.17,0A1,1,0,0,1,41.37,25.43Z"/><polygon class="cls-3" points="25.2 34.41 25.2 34.41 25.2 34.41 25.2 34.41"/><path class="cls-3" d="M26.85,32.66h0a12.09,12.09,0,0,0-1.65,1.75A12.09,12.09,0,0,1,26.85,32.66Z"/><polygon class="cls-15" points="25.2 34.41 25.2 34.41 24.99 34.38 25.2 34.41 25.2 34.41"/><polygon class="cls-7" points="21.8 35.93 21.8 35.94 21.8 35.93 21.8 35.93"/><path class="cls-16" d="M26.85,32.66a12.09,12.09,0,0,0-1.65,1.75l1.08.15Z"/><polygon class="cls-17" points="26.28 34.56 25.2 34.41 25.2 34.41 26.28 34.56"/><path class="cls-18" d="M41.73,26.51a.86.86,0,0,0,.05-.27.86.86,0,0,1-.05.27Z"/><polygon class="cls-19" points="41.51 27.27 41.51 27.27 41.73 26.51 41.73 26.51 41.73 26.51 41.51 27.27"/><polygon class="cls-19" points="28.68 34.89 29.98 30.55 30 30.44 30 30.44 30 30.44 28.68 34.89"/><polygon class="cls-14" points="44.14 26.67 41.51 27.27 41.55 27.27 44.14 26.67"/><path class="cls-20" d="M49.84,23.74h0Z"/><polygon class="cls-21" points="49.83 23.74 49.83 23.73 49.82 23.73 49.83 23.74 49.83 23.74"/><polygon class="cls-22" points="49.82 23.73 49.82 23.72 49.83 23.74 49.83 23.74 49.82 23.73"/><path class="cls-4" d="M17.32,43.4h0Z"/><path class="cls-3" d="M15.85,45.13h0a.9.9,0,0,0,.14.2h0A.9.9,0,0,1,15.85,45.13Z"/><path class="cls-3" d="M16,45.33h0a1,1,0,0,0,.32.23h0A1,1,0,0,1,16,45.33Z"/><path class="cls-3" d="M16.34,45.58l.17.05a1.06,1.06,0,0,1-.19-.06Z"/><polygon class="cls-15" points="19.14 43.65 17.32 43.4 17.33 43.41 19.14 43.65"/><path class="cls-3" d="M52.17,31.1h0Z"/><path class="cls-6" d="M16.31,45.56h0Z"/><polygon class="cls-7" points="15.99 45.33 15.99 45.33 15.99 45.33 15.99 45.33 15.99 45.33"/><polygon class="cls-12" points="52.04 26.94 52.03 26.94 52.04 26.95 52.04 26.94"/><polygon class="cls-4" points="52.04 26.95 52.03 26.94 52.03 26.93 52.04 26.95 52.04 26.95"/><polygon class="cls-23" points="49.55 27.7 49.55 27.7 49.35 28.36 49.55 27.7"/><path class="cls-16" d="M41.55,27.27l7.8,1.09.2-.66h0q-.39-.24-.81-.45a7.49,7.49,0,0,0-4.6-.58Z"/><path class="cls-16" d="M33.15,29.16h0c-.12,0-.24.07-.37.1l-.14,0c-.27.08-.55.17-.83.28l-.12.05-.05,0-.21.09-.61.27-.06,0-.64.34-.12.06h0l0,.11-1.3,4.34L36.39,36l2-6.74L35,28.74h0Z"/><path class="cls-18" d="M52.07,27.64A1.08,1.08,0,0,0,52,27v0l0,0A1,1,0,0,1,52.07,27.64Z"/><path class="cls-3" d="M14.92,50.11l2.8-4.29-2.8,4.29A7.58,7.58,0,0,0,13.83,53h0A7.58,7.58,0,0,1,14.92,50.11Z"/><path class="cls-8" d="M12.59,53h0l0,0h0Z"/><path class="cls-9" d="M12.44,53.05h0l.15-.06h0Z"/><path class="cls-10" d="M12.27,53.12h0l.17-.07h0Z"/><path class="cls-11" d="M12.1,53.24h0a.46.46,0,0,1,.07-.07h0A.46.46,0,0,0,12.1,53.24Z"/><path class="cls-11" d="M12.21,53.15h0l.06,0h0Z"/><path class="cls-3" d="M12.1,53.24h0l-.08.07-.1.09h0A.93.93,0,0,1,12.1,53.24Z"/><polygon class="cls-16" points="38.79 36.29 46.64 37.38 48.67 30.63 40.82 29.55 38.79 36.29"/><polygon class="cls-13" points="13.73 55.39 12.46 55.21 13.73 55.39 13.73 55.39 13.73 55.39"/><path class="cls-13" d="M13.83,56.12h0a1.89,1.89,0,0,1,.05.23v0C13.86,56.26,13.85,56.19,13.83,56.12Z"/><path class="cls-13" d="M14,56.81h0a1.83,1.83,0,0,0,.08.25h0A1.83,1.83,0,0,1,14,56.81Z"/><path class="cls-13" d="M14.23,57.46a.76.76,0,0,0,0,.11.76.76,0,0,1,0-.11Z"/><path class="cls-3" d="M13.73,55.39h0c0,.25.06.49.1.73h0C13.79,55.89,13.76,55.64,13.73,55.39Z"/><path class="cls-3" d="M13.88,56.32v0c0,.15.07.31.12.46h0A3.89,3.89,0,0,1,13.88,56.32Z"/><path class="cls-3" d="M14.08,57.06h0a2.74,2.74,0,0,0,.15.4h0A2.74,2.74,0,0,1,14.08,57.06Z"/><polygon class="cls-7" points="52.19 31.1 52.19 31.1 52.17 31.1 52.19 31.1"/><polygon class="cls-12" points="56.55 38.74 56.55 38.74 56.55 38.74 52.19 31.1 56.55 38.74"/><path class="cls-16" d="M52,31.1l-1-.13-2,6.73,7.5,1L52.18,31.1H52Z"/><polygon class="cls-5" points="59.32 39.17 59.32 39.17 59.32 39.17 59.32 39.17"/><path class="cls-4" d="M59.26,38.44h0l-.1-.15v0A.76.76,0,0,1,59.26,38.44Z"/><path class="cls-4" d="M59.27,38.45l0,0Z"/><path class="cls-5" d="M59.33,38.67s0,.07,0,.12v0A.54.54,0,0,1,59.33,38.67Z"/><path class="cls-5" d="M59.15,38.3v0h0s0,0,0,0Z"/><polygon class="cls-16" points="38.11 38.56 35.89 45.97 36.84 46.1 43.74 47.05 45.96 39.64 38.11 38.56"/><polygon class="cls-23" points="43.74 47.05 43.74 47.05 45.96 39.64 43.74 47.05"/><polygon class="cls-17" points="36.84 46.1 43.74 47.05 43.74 47.05 43.74 47.05 36.84 46.1"/><path class="cls-18" d="M59.48,39.25v0h0v0a1.06,1.06,0,0,1,.21.16,1,1,0,0,0-.3-.23A.71.71,0,0,0,59.48,39.25Z"/><path class="cls-18" d="M59.33,38.67a.54.54,0,0,0,0,.1v0a.83.83,0,0,1,0,.38h0l.09,0,0,0a1.31,1.31,0,0,0-.1-.69l0,0,0,0h0A1.55,1.55,0,0,1,59.33,38.67Z"/><path class="cls-5" d="M59.49,39.28v0a.71.71,0,0,1-.09-.07l0,0Z"/><polygon class="cls-16" points="22.86 54.28 30.57 55.35 32.81 47.9 25.1 46.83 22.86 54.28"/><path class="cls-4" d="M59.85,39.65v0l-.11-.16,0,.09A.28.28,0,0,1,59.85,39.65Z"/><path class="cls-4" d="M59.85,39.64l0,0Z"/><path class="cls-5" d="M60,40h0s0,0,0-.06a.14.14,0,0,0,0-.06A.53.53,0,0,1,60,40Z"/><path class="cls-5" d="M59.49,39.28a.86.86,0,0,1,.29.28l0-.09-.05-.06a1.06,1.06,0,0,0-.21-.16Z"/><polygon class="cls-19" points="48.37 39.98 46.14 47.38 46.14 47.38 48.37 39.98"/><path class="cls-4" d="M19.17,66.07l-.07.05h0Z"/><path class="cls-12" d="M19.1,66.12a.67.67,0,0,1-.15.14h0l.14-.13h0Z"/><path class="cls-8" d="M18.9,66.31h0l.05,0h0Z"/><path class="cls-8" d="M18.81,66.36h0l0,0Z"/><path class="cls-9" d="M18.65,66.43h0l.16-.07h0Z"/><path class="cls-10" d="M18.48,66.5h0a.61.61,0,0,0,.17-.07h0Z"/><path class="cls-11" d="M18.43,66.52h0l.05,0h0Z"/><path class="cls-11" d="M18.26,66.54Z"/><path class="cls-3" d="M16.32,63.26l-.05,0,0,0Z"/><path class="cls-3" d="M17.92,66.55a1.28,1.28,0,0,0,.34,0h0A1.28,1.28,0,0,1,17.92,66.55Z"/><path class="cls-3" d="M16.15,63.45a.33.33,0,0,0-.06.1,1.67,1.67,0,0,0-.12.23h0A1.11,1.11,0,0,1,16.15,63.45Z"/><path class="cls-3" d="M16,63.79h0l0,0v0Z"/><path class="cls-23" d="M19.49,65.6h0a.45.45,0,0,0,.06-.12A.45.45,0,0,1,19.49,65.6Z"/><path class="cls-18" d="M59.92,39.88a.14.14,0,0,1,0,.06,1.14,1.14,0,0,0-.06-.25l0,0h0v0A.68.68,0,0,1,59.92,39.88Z"/><path class="cls-18" d="M59.91,40.39A1.08,1.08,0,0,0,60,40h0A1.06,1.06,0,0,1,59.91,40.39Z"/><polygon class="cls-6" points="17.02 65.49 17.02 65.49 17.02 65.49 17.02 65.49"/><polygon class="cls-6" points="16.76 65.09 16.76 65.09 16.76 65.09 16.76 65.09"/><polygon class="cls-6" points="17.02 65.48 17.02 65.49 17.02 65.48 17.02 65.48"/><path class="cls-6" d="M17,65.79h0l0,.09s0,0,0,0S17.05,65.8,17,65.79Z"/><path class="cls-13" d="M17.05,65.31h0a.67.67,0,0,0,0,.17h0A.67.67,0,0,1,17.05,65.31Z"/><path class="cls-3" d="M17.05,65.31a.67.67,0,0,0,0,.17h0A1.13,1.13,0,0,1,17.05,65.31Z"/><path class="cls-3" d="M17.3,66.23l.05.06a1.06,1.06,0,0,1-.17-.2l.05.07,0,0Z"/><path class="cls-3" d="M17,65.49a.93.93,0,0,0,0,.29h0A1,1,0,0,1,17,65.49Z"/><path class="cls-3" d="M17.16,66.08l0,0S17.15,66.06,17.16,66.08Z"/><path class="cls-3" d="M17.16,66.06a.67.67,0,0,1-.1-.23s0,0,0,0a.77.77,0,0,0,.07.16h0Z"/><polygon class="cls-16" points="46.14 47.38 53.46 48.39 54.03 48.47 55.24 44.44 56.26 41.06 48.37 39.98 46.14 47.38"/><polygon class="cls-13" points="45.46 49.65 52.45 50.61 53.35 50.74 52.45 50.61 45.46 49.65"/><polygon class="cls-16" points="29.89 57.62 22.17 56.55 20.18 63.21 27.89 64.27 29.89 57.62"/><polygon class="cls-19" points="32.29 57.95 30.3 64.6 30.3 64.6 32.29 57.95"/><polygon class="cls-13" points="27.21 66.54 27.21 66.54 27.21 66.54 19.55 65.48 27.21 66.54"/><polygon class="cls-17" points="59.63 49.24 59.63 49.24 58.01 49.02 59.63 49.24"/><polygon class="cls-23" points="26.5 68.92 26.5 68.92 27.21 66.54 27.21 66.54 26.5 68.92"/><polygon class="cls-24" points="26.5 68.93 26.5 68.92 26.5 68.92 26.38 68.91 26.46 69.05 26.5 68.93"/><polygon class="cls-25" points="26.46 69.05 26.38 68.91 26.12 70.17 26.46 69.05"/><path class="cls-25" d="M26.79,71.42l.19,0-.19,0Z"/><path class="cls-3" d="M26.64,71.37h0l.14,0h0A.88.88,0,0,1,26.64,71.37Z"/><polygon class="cls-16" points="52.45 50.61 45.46 49.65 43.22 57.1 49.16 57.92 51.12 58.19 53.35 50.74 52.45 50.61"/><polygon class="cls-17" points="49.16 57.92 51.12 58.19 51.12 58.19 49.16 57.92"/><polygon class="cls-13" points="48.16 60.14 50.43 60.46 48.16 60.14 42.54 59.37 48.16 60.14"/><polygon class="cls-17" points="38.14 65.69 38.14 65.69 37.19 65.56 38.14 65.69"/><polygon class="cls-13" points="37.46 67.95 29.61 66.87 29.61 66.87 37.46 67.95"/><polygon class="cls-13" points="58.45 51.44 57 51.24 55.76 51.07 57 51.24 58.45 51.44"/><polygon class="cls-13" points="58.97 51.52 58.98 51.52 58.98 51.52 58.45 51.44 58.97 51.52"/><polygon class="cls-16" points="58.97 51.52 58.45 51.44 57 51.24 55.76 51.07 53.52 58.52 53.7 58.55 54.59 58.67 55.68 58.82 58.97 51.52"/><path class="cls-23" d="M57.77,59.52l-.05-.06,0,0Z"/><path class="cls-23" d="M57.5,59.23s0,0,0,0,0,0,0,0Z"/><path class="cls-23" d="M57.22,59.07h0l-.11,0h.06Z"/><polygon class="cls-23" points="55.68 58.82 55.68 58.82 55.68 58.82 58.98 51.52 58.97 51.52 55.68 58.82"/><polygon class="cls-15" points="56.09 58.88 55.68 58.82 55.68 58.82 56.09 58.88"/><polygon class="cls-19" points="29.61 66.87 29.61 66.87 29.61 66.87 28.91 69.21 28.52 70.51 28.91 69.21 29.61 66.87"/><path class="cls-24" d="M36.47,71.53v0h0Z"/><path class="cls-5" d="M57.22,59.07l0,0h-.06L57,59h0Z"/><path class="cls-4" d="M57,59h0Z"/><path class="cls-4" d="M57.78,59.57a.09.09,0,0,0,0,0h0S57.77,59.55,57.78,59.57Z"/><path class="cls-3" d="M36.47,71.55h0a1,1,0,0,0,.11.34A1,1,0,0,1,36.47,71.55Z"/><polygon class="cls-16" points="45.21 66.67 48.43 67.11 50.43 60.46 48.16 60.14 42.54 59.37 40.55 66.02 45.21 66.67"/><path class="cls-13" d="M45.37,71.18a5.86,5.86,0,0,0,.84,0h0A6,6,0,0,1,45.37,71.18Z"/><path class="cls-13" d="M46.3,71.2l.16,0h0a5.31,5.31,0,0,0,.68-.1l.1,0A5.21,5.21,0,0,1,46.3,71.2Z"/><polygon class="cls-13" points="47.25 71.05 47.25 71.05 47.25 71.05 47.25 71.05"/><polygon class="cls-13" points="54.67 61.04 54.67 61.04 54.67 61.04 54.67 61.04 54.67 61.04"/><path class="cls-23" d="M54.36,69.9h0c.16-.23.32-.47.46-.71C54.68,69.44,54.52,69.67,54.36,69.9Z"/><polygon class="cls-23" points="51.73 67.56 51.73 67.56 51.73 67.56 51.73 67.56"/><path class="cls-23" d="M53,67.79a.71.71,0,0,1,.22.15A.71.71,0,0,0,53,67.79Z"/><polygon class="cls-23" points="54.67 61.04 51.73 67.56 54.67 61.04 54.67 61.04 54.67 61.04"/><path class="cls-15" d="M53.29,69.43h0l.07-.09h0Z"/><polygon class="cls-15" points="52.67 67.69 51.73 67.56 51.73 67.56 52.67 67.69"/><polygon class="cls-16" points="54.67 61.04 53.41 60.87 52.84 60.79 52.04 63.43 50.84 67.44 51.18 67.49 51.73 67.56 54.67 61.04"/><polygon class="cls-17" points="51.72 67.56 51.73 67.56 51.73 67.56 51.18 67.49 51.72 67.56"/><polygon class="cls-13" points="44.69 68.95 47.75 69.38 44.69 68.95 39.87 68.29 44.69 68.95"/><path class="cls-26" d="M47.25,71.05h0l-.1,0,.1,0Z"/><path class="cls-22" d="M47.77,74.34h0l.22,0h0Z"/><path class="cls-22" d="M46.3,71.2s-.06,0-.08,0h0l.26,0h0Z"/><path class="cls-21" d="M47.71,74.36l.06,0h0Z"/><path class="cls-21" d="M47.15,74.48Z"/><polygon class="cls-23" points="47.25 71.05 47.25 71.05 47.64 69.77 47.75 69.38 47.64 69.77 47.25 71.05"/><path class="cls-23" d="M48.38,73.1h0a1.33,1.33,0,0,0,.43-.17h0A1.33,1.33,0,0,1,48.38,73.1Z"/><path class="cls-23" d="M48.84,72.9h0a1.34,1.34,0,0,0,.25-.23h0A1.13,1.13,0,0,1,48.84,72.9Z"/><path class="cls-16" d="M46.22,71.2s.05,0,.08,0a5.21,5.21,0,0,0,1-.15l.39-1.28.11-.39L44.69,69l-4.83-.66-.64,2.15,6.15.74A6,6,0,0,0,46.22,71.2Z"/><path class="cls-5" d="M53.57,68.63h0v-.06h0Z"/><polygon class="cls-25" points="47.25 71.05 47.25 71.05 47.2 71.23 47.25 71.05 47.25 71.05"/><path class="cls-18" d="M54.16,70.2l.2-.29h0C54.29,70,54.23,70.1,54.16,70.2Z"/><path class="cls-18" d="M53.57,68.57h0a.86.86,0,0,0-.06-.23h0A.86.86,0,0,1,53.57,68.57Z"/><path class="cls-18" d="M53.67,70.81l.25-.32-.26.3Z"/><path class="cls-18" d="M53.18,69.56l.11-.13h0Z"/><path class="cls-18" d="M53.36,69.34h0a1.24,1.24,0,0,0,.18-.34A1.24,1.24,0,0,1,53.36,69.34Z"/><path class="cls-18" d="M53.58,68.76c0-.05,0-.09,0-.13h0S53.58,68.71,53.58,68.76Z"/><path class="cls-27" d="M53.51,71h0c.06-.06.1-.12.16-.17v0Z"/><path class="cls-28" d="M53.38,71.11h0l.13-.13h0A.86.86,0,0,0,53.38,71.11Z"/><path class="cls-29" d="M53.37,71.12h0Z"/><path class="cls-30" d="M53,71.47h0l0,0A.1.1,0,0,1,53,71.47Z"/><path class="cls-7" d="M52.88,71.59h0l.13-.12h0Z"/><polygon class="cls-6" points="52.88 71.6 52.88 71.61 52.89 71.6 52.88 71.59 52.88 71.6"/><path class="cls-18" d="M49.44,73.8l.17-.08-.17.07Z"/><path class="cls-18" d="M49.1,72.67h0a.73.73,0,0,0,.09-.08A.73.73,0,0,1,49.1,72.67Z"/><path class="cls-27" d="M49.24,73.87h0l.07,0,.13-.06h0Z"/><path class="cls-27" d="M48.81,72.93h0l0,0h0Z"/><path class="cls-28" d="M49.07,73.94h0a.85.85,0,0,0,.17-.06h0Z"/><path class="cls-29" d="M49,74l.1,0h0Z"/><polygon class="cls-31" points="48.37 73.11 48.38 73.1 48.38 73.1 48.37 73.11"/><path class="cls-6" d="M48,74.27v0l.08,0,.31-.1Z"/><path class="cls-7" d="M48,74.28h0v0Z"/><polygon class="cls-30" points="47.99 74.28 47.99 74.29 47.99 74.29 47.99 74.28 47.99 74.28"/><path class="cls-32" d="M12.12,55.11a1,1,0,0,0,.34.1l1.27.18,6,.83-2,6.65-.16,0a1.57,1.57,0,0,0-1.3.41l-.08.07-.09.12a1.11,1.11,0,0,0-.18.34h0l0,0h0A1,1,0,0,0,16.48,65a1.15,1.15,0,0,0,.28.09h0l.34,0a1.28,1.28,0,0,0-.05.17h0a1.13,1.13,0,0,0,0,.18h0a1,1,0,0,0,0,.3s0,0,0,0a.67.67,0,0,0,.1.23l0,0a1.06,1.06,0,0,0,.17.2,1.19,1.19,0,0,0,.29.18l.06,0,.22,0a1.28,1.28,0,0,0,.34,0h.17l.05,0,.17-.07.16-.07.05,0,0,0,.05,0a.67.67,0,0,0,.15-.14l.07-.05a.27.27,0,0,1,.08-.07,1.68,1.68,0,0,0,.22-.42l0,0a.45.45,0,0,0,.06-.12l7.66,1.06h0l-.71,2.38h0l0,.12-.34,1.12a1.1,1.1,0,0,0,0,.47,1.16,1.16,0,0,0,.16.4l.05.06a.57.57,0,0,0,.11.11.78.78,0,0,0,.24.16.88.88,0,0,0,.15,0l.19,0a1.38,1.38,0,0,0,1.07-.3,1.72,1.72,0,0,0,.27-.27,1.2,1.2,0,0,0,.2-.39l.39-1.3.7-2.34L37.46,68l-.66,2.2-.29,1a1.11,1.11,0,0,0,0,.4v0a1,1,0,0,0,.11.34.91.91,0,0,0,.17.23h0l0,0a1.27,1.27,0,0,0,.27.18.9.9,0,0,0,.33.09,1.4,1.4,0,0,0,1.08-.31,1.37,1.37,0,0,0,.46-.65l.31-1h0l.64-2.15,4.83.66,3.06.43-.11.39-.39,1.28h0l0,.18-.18.6a1,1,0,0,0,.86,1.3,1.16,1.16,0,0,0,.49,0h0a1.33,1.33,0,0,0,.43-.17l0,0a1.13,1.13,0,0,0,.26-.23.73.73,0,0,0,.09-.08,1.37,1.37,0,0,0,.23-.43L50,70.4l.2-.69L52,70a1.4,1.4,0,0,0,.61-.06,1.42,1.42,0,0,0,.58-.34l.11-.13.07-.09a1.24,1.24,0,0,0,.18-.34c0-.09,0-.17,0-.24s0-.09,0-.13v-.06a.86.86,0,0,0-.06-.23l-.11-.2h0a1,1,0,0,0-.17-.19.71.71,0,0,0-.22-.15,1.15,1.15,0,0,0-.33-.1l-1-.13h0l-.54-.07-.34,0,1.2-4,.8-2.64.57.08,1.26.17h0l1.64.23h.19a1.48,1.48,0,0,0,1-.38,1.37,1.37,0,0,0,.37-.59.55.55,0,0,0,0-.18l-.54-1-.11,0h0L57,59h0l-.9-.12-.41-.06h0l-1.09-.15-.89-.12-.18,0,2.24-7.45,1.24.17,1.45.2.53.08.76.1a1.44,1.44,0,0,0,1.54-1,1,1,0,0,0-.52-1.2,1.22,1.22,0,0,0-.34-.1l-.79-.11h0L58,49l-1.58-.22,2-6.72.21-.72a1.55,1.55,0,0,0,.36-.08,1.43,1.43,0,0,0,.8-.69,1.67,1.67,0,0,0,.08-.2A1.06,1.06,0,0,0,60,40a.53.53,0,0,0,0-.12.68.68,0,0,0-.07-.23.28.28,0,0,0-.07-.09.86.86,0,0,0-.29-.28h0l-.08-.06-.09,0h0a.83.83,0,0,0,0-.38s0-.08,0-.12a1.55,1.55,0,0,0-.07-.23.76.76,0,0,0-.11-.14l0-.06a1,1,0,0,0-.33-.25,1.06,1.06,0,0,0-.33-.09h-.17a1.48,1.48,0,0,0-1.35.91l-.39-.06h0l-7.5-1,2-6.73,1,.13h.16a1.46,1.46,0,0,0,1.18-.58,1.2,1.2,0,0,0,.2-.39,1,1,0,0,0,0-.49,1,1,0,0,0-.32-.56.78.78,0,0,0-.22-.15,1,1,0,0,0-.34-.1l-1-.13.32-1.06a1,1,0,0,0-.06-.73,1.07,1.07,0,0,0-.47-.47,1.59,1.59,0,0,0-.33-.1,1.45,1.45,0,0,0-1,.22,1.43,1.43,0,0,0-.6.75l-.11.39h0l-.2.66-7.8-1.09h0l.22-.75a.86.86,0,0,0,.05-.27,1,1,0,0,0-.25-.69,1.67,1.67,0,0,0-.16-.12,1,1,0,0,0-.16-.12l-.17,0-.17-.05h0a.69.69,0,0,0-.2,0h-.18s0,0-.06,0h0l-.08,0a.94.94,0,0,0-.15.06.85.85,0,0,0-.17.06h0a1.58,1.58,0,0,0-.15.12l-.13.1-.07.05a1.31,1.31,0,0,0-.24.37l-.07.15L39.1,27l-2.34-.32-2.53-.35a1.44,1.44,0,0,0-1.54,1,1.19,1.19,0,0,0,0,.32,1.17,1.17,0,0,0,0,.27l0,.07a.89.89,0,0,0,.08.17l0,0a1.15,1.15,0,0,0,.14.17h0a1,1,0,0,0,.24.16.9.9,0,0,0,.34.09l1.26.18.18,0,3.43.48-2,6.74-7.71-1.07L30,30.44a1,1,0,0,0-.13-.72l-.07-.09v0a1,1,0,0,0-.33-.26,1.22,1.22,0,0,0-.34-.1,1.45,1.45,0,0,0-1.54,1l-.73,2.44h0l-.57,1.9-1.08-.15h0l-.21,0-1.69-.23a1.35,1.35,0,0,0-.53,0,1.41,1.41,0,0,0-1.07.94,1,1,0,0,0-.05.3s0,0,0,.07,0,.06,0,.09a1.12,1.12,0,0,0,.08.26l.05.1h0a.76.76,0,0,0,.19.21.78.78,0,0,0,.24.16,1.15,1.15,0,0,0,.33.1l1.2.17,1.84.25-2.22,7.4-4.24-.58-1.81-.24h0a1.44,1.44,0,0,0-1.5,1,.86.86,0,0,0,0,.27.93.93,0,0,0,.11.49h0a.9.9,0,0,0,.14.2,1,1,0,0,0,.33.24,1.06,1.06,0,0,0,.19.06l.13,0,1.08.15,5,.68L20.45,54,13.83,53h0l-.69-.1a1.35,1.35,0,0,0-.49,0h0l0,0-.15.06-.17.07-.06,0,0,0a.46.46,0,0,0-.07.07.93.93,0,0,0-.18.16.73.73,0,0,0-.09.08,1.19,1.19,0,0,0-.23.43,1.22,1.22,0,0,0,0,.37A1,1,0,0,0,12.12,55.11Zm8.06,8.1,2-6.66,7.72,1.07-2,6.65Zm18,2.48-1-.14-6.89-1h0l2-6.65L40.14,59l-2,6.66Zm5.6-18.64h0l-6.9-.95-1-.13,2.22-7.41L46,39.64Zm-.68,2.27-2.24,7.44L33,55.68l2.24-7.45Zm-.52,10,5.62.77,2.27.32-2,6.65-3.22-.44L40.55,66Zm8.57-1.18h0l-2-.27-5.94-.82,2.24-7.45,7,1,.9.13Zm5.15-17.13-1,3.38-1.21,4-.57-.08-7.32-1h0L48.37,40ZM40.82,29.55l7.85,1.08-2,6.74-7.85-1.08ZM28,37.16l7.71,1.07-2.22,7.4-7.71-1.07Zm-2.9,9.67,7.71,1.07-2.24,7.45-7.71-1.06Z"/><path class="cls-32" d="M57.46,59.2l.43.79v0a.88.88,0,0,0-.11-.39s0,0,0-.06l0,0a1.2,1.2,0,0,0-.22-.23h0Z"/><polygon class="cls-16" points="25.6 36.83 23.76 36.58 19.14 43.65 23.38 44.23 25.6 36.83"/><path class="cls-16" d="M14.92,50.11A7.58,7.58,0,0,0,13.83,53h0l6.62.91,2.24-7.45-5-.68Z"/><path class="cls-16" d="M17.78,62.87l2-6.65-6-.83h0c0,.25.06.5.1.73,0,.07,0,.14.05.2a3.89,3.89,0,0,0,.12.49,1.83,1.83,0,0,0,.08.25,2.74,2.74,0,0,0,.15.4.76.76,0,0,0,0,.11,4.3,4.3,0,0,0,.32.6l3,4.68h0Z"/><polygon class="cls-33" points="61.96 40.41 61.96 40.41 61.96 40.41 62.14 40.73 61.92 40.35 61.96 40.41"/><path class="cls-34" d="M62.21,40.86a.75.75,0,0,0-.07-.12l.09.16Z"/><path class="cls-3" d="M63.52,47.5a13.17,13.17,0,0,0-1.29-6.6l-.09-.16a13.11,13.11,0,0,1,1.38,6.76,13.73,13.73,0,0,1-1.1,5l4,7.35a13.44,13.44,0,0,0,1.1-4.95Z"/><path class="cls-35" d="M60.73,38.27v0h0l1.2,2.11h0l.22.39a.75.75,0,0,1,.07.12l0,0a13.17,13.17,0,0,1,1.29,6.6l6.66-14.75L81,18.33,73.54,14.1,62,29.4l-2.81,6.22,1.5,2.62Z"/><polygon class="cls-36" points="61.96 40.41 60.73 38.27 60.72 38.24 61.96 40.41 61.96 40.41"/><polygon class="cls-34" points="61.96 40.41 61.92 40.35 61.92 40.35 60.72 38.24 60.72 38.24 60.73 38.27 61.96 40.41"/><path class="cls-6" d="M19.47,70.15l.22.12Z"/><path class="cls-6" d="M17.35,66.29l-.05-.06,0,0a1,1,0,0,0,.32.25h.05A1.19,1.19,0,0,1,17.35,66.29Z"/><path class="cls-7" d="M17.18,66.09l0,0v0l.07.08Z"/><polygon class="cls-30" points="17.14 66.03 17.14 66.04 17.16 66.08 17.16 66.08 17.14 66.04 17.14 66.03"/><path class="cls-18" d="M19.11,66.13h0l.15-.13a.27.27,0,0,0-.08.07Z"/><path class="cls-18" d="M19.49,65.6l.22.16-.16-.28A.45.45,0,0,1,19.49,65.6Z"/><path class="cls-27" d="M18.86,66.34l0,0,.08-.06h0Z"/><path class="cls-31" d="M18.41,66.53h0Z"/><path class="cls-6" d="M17.7,66.5l.22,0Z"/><polygon class="cls-16" points="32.97 55.68 40.82 56.77 43.06 49.32 35.21 48.23 32.97 55.68"/><path class="cls-16" d="M56.43,48.8,58,49l1.62.22h0a11,11,0,0,0-.86-6.61l-.31-.55Z"/><path class="cls-20" d="M25.23,72.3l.19,0c-.33,0-.68-.1-1-.17Z"/><path class="cls-20" d="M19.55,65.48l.16.28a18.53,18.53,0,0,0,3.47,2.17A13.77,13.77,0,0,1,19.55,65.48Z"/><polygon class="cls-37" points="11.3 60.19 15.28 67.55 19.2 73.63 15.22 66.28 11.3 60.19"/><path class="cls-16" d="M27.21,66.54l-7.66-1.06a13.77,13.77,0,0,0,3.63,2.45,10.94,10.94,0,0,0,3.2,1h.12Z"/><polygon class="cls-16" points="40.14 59.03 32.29 57.95 30.3 64.6 30.3 64.6 37.19 65.56 38.14 65.69 38.14 65.69 40.14 59.03"/><path class="cls-6" d="M26.4,71.21a.78.78,0,0,0,.24.16h0A.78.78,0,0,1,26.4,71.21Z"/><path class="cls-7" d="M26.29,71.1,26.24,71Z"/><polygon class="cls-16" points="29.61 66.87 29.61 66.87 28.91 69.21 36.8 70.15 37.46 67.95 29.61 66.87"/><path class="cls-5" d="M57.89,60l-.43-.79,0,0s0,0,0,0l-.12-.06.54,1A.51.51,0,0,0,57.89,60Z"/><polygon class="cls-19" points="39.22 70.44 39.22 70.44 39.22 70.44 39.22 70.44"/><path class="cls-6" d="M36.75,72.12l0,0,0,0Z"/><path class="cls-24" d="M45.74,74.64h0Z"/><path class="cls-24" d="M45.51,74.64h0Z"/><path class="cls-24" d="M46.08,74.62l.84-.09.23,0h0A10.12,10.12,0,0,1,46.08,74.62Z"/><path class="cls-24" d="M46.08,74.62l-.32,0Z"/><polygon class="cls-24" points="39.22 70.44 39.22 70.44 45.37 71.18 39.22 70.44"/><polygon class="cls-4" points="54.35 69.9 54.36 69.91 54.36 69.91 54.36 69.9 54.35 69.9"/><path class="cls-4" d="M53.51,68.34h0a1.28,1.28,0,0,0-.11-.2Z"/><polygon class="cls-12" points="54.36 69.9 54.36 69.91 54.36 69.91 54.36 69.9 54.36 69.9"/><path class="cls-13" d="M52.44,72l.44-.38h0Z"/><path class="cls-13" d="M52,72.36l.13-.11-.43.3Z"/><path class="cls-19" d="M50.58,73.26l.22-.14-.54.29A3.13,3.13,0,0,0,50.58,73.26Z"/><path class="cls-36" d="M15.34,66.45l.16.23c.19.25.4.5.62.75l.17.18c.28.3.57.59.88.87l0,0q.46.4,1,.78l.19.15c.35.24.71.48,1.08.71l.22.12c.39.23.79.45,1.19.65l.37.17a15.18,15.18,0,0,0,3.15,1.06c.34.07.69.13,1,.17l19,2.27.2,0h.2l.2,0h.75l.32,0a10.12,10.12,0,0,0,1.07-.14h0l.54-.11.06,0,.22-.06h0l.39-.1L49,74l.1,0,.17-.07.2-.08.17-.07.65-.31.54-.29c.31-.18.6-.37.89-.57l.43-.3.32-.26.44-.39h0l.13-.12a.1.1,0,0,0,.05,0c.11-.1.21-.2.31-.31h0a.86.86,0,0,1,.13-.14l.15-.18.26-.3.24-.29c.07-.1.13-.2.19-.3h0c.16-.23.32-.46.46-.7,0,0,0-.1.24-.47a1.19,1.19,0,0,1,.08-.16l7.28-16.12a13.73,13.73,0,0,0,1.1-5,13.11,13.11,0,0,0-1.38-6.76L62,40.41l-1.24-2.17-1.5-2.62-4.67-8.19a8.44,8.44,0,0,0-3.79-3.31c-.24-.11-.49-.22-.75-.31l-.17-.07h0a11.8,11.8,0,0,0-4.78-.61c-.21,0-.42,0-.66.08h0l-.22,0-.23,0-.21.05-11,2.48a20.08,20.08,0,0,0-10.95,7.52l-10,15.3c-2.24,3.42-2.45,8.5-.47,11.55l3.93,6.09A1.63,1.63,0,0,0,15.34,66.45ZM11.6,53.91a1.19,1.19,0,0,1,.23-.43.73.73,0,0,1,.09-.08l.1-.09a1.39,1.39,0,0,1,.63-.34,1.35,1.35,0,0,1,.49,0l.69.1a7.58,7.58,0,0,1,1.09-2.93l2.8-4.29-1.08-.15-.13,0-.17-.05h0a1,1,0,0,1-.32-.23h0a.9.9,0,0,1-.14-.2h0a.93.93,0,0,1-.11-.49.86.86,0,0,1,0-.27,1.44,1.44,0,0,1,1.5-1h0l1.82.25,4.62-7.07-1.2-.17a1.15,1.15,0,0,1-.33-.1.78.78,0,0,1-.24-.16.76.76,0,0,1-.19-.21h0l-.05-.1a1.12,1.12,0,0,1-.08-.26s0-.06,0-.09,0,0,0-.07a1,1,0,0,1,.05-.3,1.41,1.41,0,0,1,1.07-.94,1.35,1.35,0,0,1,.53,0l1.69.23.21,0a12.09,12.09,0,0,1,1.65-1.75h0l.73-2.44a1.45,1.45,0,0,1,1.54-1,1.22,1.22,0,0,1,.34.1,1,1,0,0,1,.33.26v0l.07.09a1,1,0,0,1,.13.72l.12-.07.38-.19.36-.19.44-.2.35-.15h0l.1,0c.29-.11.57-.21.85-.29l.14,0c.13,0,.25-.08.37-.1L35,28.74l-.17,0-1.26-.18a.9.9,0,0,1-.34-.09,1,1,0,0,1-.24-.16h0a1.15,1.15,0,0,1-.14-.17l0,0a.89.89,0,0,1-.08-.17l0-.07a1.17,1.17,0,0,1,0-.27,1.19,1.19,0,0,1,0-.32,1.44,1.44,0,0,1,1.54-1l2.53.35L39.1,27l.23-.77L39.4,26a1.31,1.31,0,0,1,.24-.37l.07-.05.13-.1a.88.88,0,0,1,.15-.12h0a.85.85,0,0,1,.17-.06.94.94,0,0,1,.15-.06l.08,0h0s0,0,.06,0h.18a.69.69,0,0,1,.2,0h0l.17.05.17,0a1,1,0,0,1,.16.12,1.67,1.67,0,0,1,.16.12,1,1,0,0,1,.25.69.86.86,0,0,1-.05.27h0l-.22.75h0l2.63-.6a7.49,7.49,0,0,1,4.6.58q.42.21.81.45h0l.11-.39a1.43,1.43,0,0,1,.6-.75,1.45,1.45,0,0,1,1-.22,1.59,1.59,0,0,1,.33.1,1.07,1.07,0,0,1,.47.47l0,0h0a1.08,1.08,0,0,1,0,.69l-.32,1.06,1,.13a1,1,0,0,1,.34.1.78.78,0,0,1,.22.15,1,1,0,0,1,.32.56,1,1,0,0,1,0,.49,1.2,1.2,0,0,1-.2.39,1.46,1.46,0,0,1-1.18.58h0l4.37,7.64h0l.39.06a1.48,1.48,0,0,1,1.35-.91h.17a1.06,1.06,0,0,1,.33.09.91.91,0,0,1,.35.29h0l.1.15,0,0,0,0a1.31,1.31,0,0,1,.1.69,1,1,0,0,1,.3.23l.05.06.11.16h0l0,0a1.14,1.14,0,0,1,.06.25s0,0,0,.06a1.08,1.08,0,0,1,0,.39,1.67,1.67,0,0,1-.08.2,1.43,1.43,0,0,1-.8.69,1.55,1.55,0,0,1-.36.08l-.21.72.31.55a11,11,0,0,1,.86,6.61l.79.11a1.22,1.22,0,0,1,.34.1,1,1,0,0,1,.52,1.2,1.44,1.44,0,0,1-1.54,1l-.76-.1h0l-3.3,7.3.41.06L57,59h0l.11,0,.11,0,.11,0,.12.06s0,0,0,0a1.2,1.2,0,0,1,.22.23l.05.06a.09.09,0,0,1,0,0,.88.88,0,0,1,.11.39v0a.51.51,0,0,1,0,.13.55.55,0,0,1,0,.18,1.37,1.37,0,0,1-.37.59,1.48,1.48,0,0,1-1,.38h-.19L54.67,61h0l-3,6.52,1,.13a1.15,1.15,0,0,1,.33.1.71.71,0,0,1,.22.15,1,1,0,0,1,.17.19h0a1.28,1.28,0,0,1,.11.2.86.86,0,0,1,.06.23v.06s0,.08,0,.13,0,.15,0,.24a1.24,1.24,0,0,1-.18.34l-.07.09-.11.13a1.42,1.42,0,0,1-.58.34A1.4,1.4,0,0,1,52,70l-1.84-.25-.2.69-.53,1.76a1.37,1.37,0,0,1-.23.43.73.73,0,0,1-.09.08,1.34,1.34,0,0,1-.25.23l0,0a1.33,1.33,0,0,1-.43.17h0a1.16,1.16,0,0,1-.49,0,1,1,0,0,1-.86-1.3l.18-.6,0-.18-.1,0a5.31,5.31,0,0,1-.68.1l-.26,0a5.86,5.86,0,0,1-.84,0l-6.15-.73h0l-.31,1a1.37,1.37,0,0,1-.46.65,1.4,1.4,0,0,1-1.08.31.9.9,0,0,1-.33-.09,1.27,1.27,0,0,1-.27-.18l0,0a.91.91,0,0,1-.17-.23,1,1,0,0,1-.11-.34v0a1.11,1.11,0,0,1,0-.4l.29-1-7.89-.94-.39,1.3a1.2,1.2,0,0,1-.2.39,1.72,1.72,0,0,1-.27.27,1.38,1.38,0,0,1-1.07.3l-.19,0-.14,0h0a.78.78,0,0,1-.24-.16.57.57,0,0,1-.11-.11L26.24,71a1.16,1.16,0,0,1-.16-.4,1.1,1.1,0,0,1,0-.47l.26-1.26a10.94,10.94,0,0,1-3.2-1,18.53,18.53,0,0,1-3.47-2.17l-.22-.16h0l0,0a1.68,1.68,0,0,1-.22.42l-.15.13-.14.13-.05,0-.08.06h0l-.16.07a.61.61,0,0,1-.17.07l-.05,0h-.17a1.28,1.28,0,0,1-.34,0l-.22,0-.06,0h-.05a1,1,0,0,1-.32-.25l0,0-.07-.08h0s0,0,0,0h0a.77.77,0,0,1-.07-.16l0-.09a.93.93,0,0,1,0-.29h0a.67.67,0,0,1,0-.17,1.28,1.28,0,0,1,.05-.17l-.34,0h0a1.15,1.15,0,0,1-.28-.09A1,1,0,0,1,16,63.83v0l0,0h0a1.67,1.67,0,0,1,.12-.23,1.44,1.44,0,0,1,.18-.25l.05,0a1.57,1.57,0,0,1,1.3-.41h0l-3-4.68a4.3,4.3,0,0,1-.32-.6.76.76,0,0,1,0-.11,2.74,2.74,0,0,1-.15-.4,1.83,1.83,0,0,1-.08-.25c-.05-.15-.08-.31-.12-.46a1.89,1.89,0,0,0-.05-.23c0-.24-.07-.48-.1-.73l-1.27-.18a1,1,0,0,1-.34-.1,1,1,0,0,1-.57-.83A1.22,1.22,0,0,1,11.6,53.91Z"/><polygon class="cls-16" points="25.78 44.56 33.49 45.63 35.71 38.23 28 37.16 25.78 44.56"/><path class="cls-4" d="M11.16,60l3.91,7.23.2.35-4-7.36Z"/><path class="cls-12" d="M11,59.71l4,7.36.08.13L11.16,60C11.11,59.88,11.06,59.8,11,59.71Z"/><polygon class="cls-38" points="81.02 18.33 70.18 32.75 74.16 40.1 84.99 25.69 81.02 18.33"/><polygon class="cls-39" points="63.52 47.5 67.49 54.85 67.49 54.85 74.16 40.1 70.18 32.75 63.52 47.5"/><path class="cls-4" d="M25.42,72.32l-.19,0,4,7.34a1.38,1.38,0,0,0,.2,0Z"/><path class="cls-5" d="M25.23,72.3l-.83-.15a15.18,15.18,0,0,1-3.15-1.06l-.37-.17c-.4-.2-.8-.42-1.19-.65l-.22-.12c-.37-.23-.73-.47-1.08-.71l-.19-.15q-.52-.37-1-.78l0,0c-.31-.28-.6-.57-.88-.87l-.1-.09,4,7.33.12.12a12,12,0,0,0,.88.86l0,0c.31.27.65.53,1,.79l.2.14a11.84,11.84,0,0,0,1.08.71l.22.13c.39.23.78.45,1.19.64l.36.17h0l.39.18v0l.39.16v0l.4.15v0l.4.16h0c.4.13.8.25,1.19.34a2.74,2.74,0,0,0,.39.09h0c.28.06.56.1.83.14Z"/><path class="cls-4" d="M16.12,67.43c-.22-.25-.43-.5-.62-.75l-.16-.23a1.63,1.63,0,0,1-.11-.17l4,7.35a1.74,1.74,0,0,1,.11.18l.17.22a7.14,7.14,0,0,0,.61.75l.06.07-4-7.33Z"/><polygon class="cls-25" points="62.42 52.45 55.13 68.57 59.11 75.92 66.39 59.8 62.42 52.45"/><path class="cls-3" d="M55.14,68.57a1.19,1.19,0,0,0-.08.16c-.19.37-.22.42-.24.47-.14.24-.3.48-.46.71h0l-.2.29-.24.29-.25.32c-.06,0-.1.11-.16.17l-.13.13h0c-.1.11-.2.21-.31.31l0,0-.13.12h0l-.44.38-.32.26-.13.11,4,7.34.15-.1.31-.26a8.39,8.39,0,0,0,.63-.56l.3-.3c.2-.21.38-.42.56-.64s.16-.19.23-.29a8.23,8.23,0,0,0,.66-1l.24-.46.08-.17Z"/><polygon class="cls-15" points="44.41 74.59 25.42 72.32 29.4 79.67 48.39 81.94 44.41 74.59"/><path class="cls-4" d="M45.51,74.64H45l-.2,0h-.2l-.2,0,4,7.35.2,0,.2,0h.7Z"/><path class="cls-11" d="M52,72.36l-.3.19c-.29.2-.58.39-.89.57l-.22.14,4,7.34.23-.12c.31-.18.61-.38.9-.58l.28-.2Z"/><path class="cls-10" d="M50.58,73.26a3.13,3.13,0,0,1-.32.15l-.65.31-.17.08-.13.06,4,7.34.31-.13c.22-.09.44-.2.66-.3l.3-.17Z"/><path class="cls-9" d="M49.31,73.86l-.07,0a.85.85,0,0,1-.17.06L49,74l-.56.2-.31.1,4,7.34.31-.09.57-.19.32-.13Z"/><path class="cls-8" d="M48.1,74.27l-.08,0h0l-.22,0-.06,0-.54.11h0l-.23,0,4,7.33.26,0,.54-.12.39-.1Z"/><path class="cls-12" d="M46.92,74.53l-.84.09-.32,0h-.25l4,7.36h.56a7.9,7.9,0,0,0,.83-.12Z"/></svg>