<svg id="Layer_1" data-name="Layer 1" xmlns="http://www.w3.org/2000/svg" viewBox="0 0 94 94"><defs><style>.cls-1{fill:#1a1736;}.cls-2,.cls-22{fill:none;}.cls-3{fill:#855936;}.cls-4{fill:#5f222a;}.cls-5{fill:#752a33;}.cls-6{fill:#7c2d36;}.cls-7{fill:#9a3843;}.cls-8{fill:#ad7546;}.cls-9{fill:#b37848;}.cls-10{fill:#a87244;}.cls-11{fill:#a36e42;}.cls-12{fill:#792c35;}.cls-13{fill:#8f603a;}.cls-14{fill:#802e38;}.cls-15{fill:#634328;}.cls-16{fill:#712932;}.cls-17{fill:#6e2830;}.cls-18{fill:#6a262e;}.cls-19{fill:#66252d;}.cls-20{fill:#d79157;}.cls-21{fill:#63242b;}.cls-22{stroke:#b37848;stroke-linecap:round;stroke-linejoin:round;stroke-width:0;}.cls-23{fill:#7a5331;}.cls-24{fill:#a16d41;}.cls-25{fill:#8a5d38;}.cls-26{fill:#94643c;}.cls-27{fill:#7e5533;}.cls-28{fill:#825834;}.cls-29{fill:#865a36;}</style></defs><title>Pizza-Image_v1</title><rect class="cls-1" width="94" height="94" rx="30"/><path class="cls-2" d="M34.71,23.14a1.74,1.74,0,0,1-.1-.19h0A1.24,1.24,0,0,0,34.71,23.14Z"/><path class="cls-2" d="M34.52,22.8a.76.76,0,0,1-.08-.11h0A.76.76,0,0,0,34.52,22.8Z"/><path class="cls-2" d="M25.34,48.66h0l.4.25h0C25.61,48.83,25.47,48.75,25.34,48.66Z"/><path class="cls-2" d="M82.82,38.27c.05.19.11.37.15.56,0-.08,0-.15,0-.23S82.85,38.38,82.82,38.27Z"/><polygon class="cls-2" points="24.05 47.38 24.06 47.39 24.05 47.38 24.05 47.38"/><path class="cls-2" d="M26.78,20.18l-.24.05.24-.05Z"/><path class="cls-2" d="M25.07,20.65l-.09,0,.09,0Z"/><path class="cls-2" d="M82.3,36.56c0-.07,0-.13-.08-.19.08.21.14.41.21.62,0-.13-.07-.25-.12-.38A.43.43,0,0,0,82.3,36.56Z"/><path class="cls-2" d="M29.18,20h0Z"/><path class="cls-2" d="M30.29,20.17h0l-.26,0h0Z"/><path class="cls-2" d="M76.91,27.42c.37.45.73.91,1.08,1.36l-.07-.09C77.59,28.27,77.26,27.84,76.91,27.42Z"/><path class="cls-2" d="M28.23,49.61h0Z"/><path class="cls-2" d="M51.69,26.88l.2-.11Z"/><path class="cls-2" d="M76.3,26.71c-.09-.1-.17-.2-.26-.29a2.09,2.09,0,0,0-.2-.22c.3.33.59.66.88,1-.06-.07-.12-.13-.17-.2Z"/><path class="cls-2" d="M26.63,49.31a6.29,6.29,0,0,0,.62.17h0q-.32-.07-.63-.18Z"/><path class="cls-2" d="M79.36,30.73l0-.07-.14-.2c.18.27.35.54.52.81-.11-.17-.2-.34-.31-.51Z"/><path class="cls-2" d="M80.12,32c.18.31.35.62.52.93-.07-.13-.14-.27-.22-.4Z"/><path class="cls-2" d="M27.47,49.52a5.15,5.15,0,0,0,.53.07h0a4.68,4.68,0,0,1-.54-.07Z"/><path class="cls-2" d="M40.13,51.13c0,.09,0,.17-.05.25a2,2,0,0,1,.05-.24Z"/><path class="cls-2" d="M78.12,41.46c.84-.17,1.68-.35,2.53-.49-.85.14-1.69.32-2.53.49Z"/><path class="cls-2" d="M42.54,56.38h0c.09,0,.18.11.27.15h0C42.72,56.49,42.63,56.43,42.54,56.38Z"/><path class="cls-2" d="M41.2,55.29l0,.05h0Z"/><path class="cls-2" d="M36.94,40.47a4.46,4.46,0,0,0-.28-.75h0A4.46,4.46,0,0,1,36.94,40.47Z"/><path class="cls-2" d="M36.58,39.54h0c-.07-.12-.15-.24-.23-.36h0C36.43,39.3,36.51,39.42,36.58,39.54Z"/><path class="cls-2" d="M43.6,57.6c-.79.62-1.58,1.26-2.35,1.91.77-.65,1.56-1.28,2.35-1.91Z"/><path class="cls-2" d="M23.23,43.26s0,0,0-.08S23.23,43.23,23.23,43.26Z"/><path class="cls-2" d="M43.31,56.73a2.5,2.5,0,0,1,.25.09h0l-.25-.1Z"/><path class="cls-2" d="M44.37,57c.88-.68,1.79-1.34,2.7-2l.7-.5c.87-.6,1.74-1.19,2.62-1.76L48.5,54q-2.11,1.44-4.14,3h0Z"/><path class="cls-2" d="M23.14,44h0c0,.11,0,.23,0,.35h0C23.13,44.2,23.13,44.09,23.14,44Z"/><path class="cls-2" d="M23.32,21.48l-.15.08.15-.08Z"/><path class="cls-2" d="M25,20.68l-.18.07h0Z"/><path class="cls-2" d="M32,68.65c.54-.61,1.07-1.22,1.63-1.82h0c-.55.59-1.09,1.2-1.62,1.81Z"/><path class="cls-2" d="M24.2,21l-.1,0,.09,0Z"/><path class="cls-2" d="M40.68,54.53l-.13-.24Z"/><path class="cls-2" d="M25.92,49c.21.1.42.2.64.28h0c-.22-.08-.43-.18-.64-.28Z"/><path class="cls-2" d="M42.28,47.22l.36-.33Z"/><path class="cls-2" d="M35.63,38.3h0l-.15-.13h0A.86.86,0,0,0,35.63,38.3Z"/><path class="cls-2" d="M46,45.26l-.21.05h0Z"/><path class="cls-2" d="M43.21,16.1h0c.59.05,1.18.12,1.76.2h0C44.46,16.23,43.84,16.16,43.21,16.1Z"/><path class="cls-2" d="M54.61,25.83l-.17,0h0Z"/><path class="cls-2" d="M54.43,25.87h0l-.65.14-.11,0h0C53.93,26,54.18,25.91,54.43,25.87Z"/><path class="cls-2" d="M42.1,16l.32,0h0Z"/><path class="cls-2" d="M59,26.11,58.56,26h0C58.71,26,58.84,26.07,59,26.11Z"/><path class="cls-2" d="M53.67,18.32h0c.64.22,1.27.45,1.88.69l.2.07C55.1,18.82,54.39,18.56,53.67,18.32Z"/><path class="cls-2" d="M60,26.49h0l-.55-.23.07,0Z"/><path class="cls-2" d="M53.46,26.11l-.3.09.3-.09Z"/><path class="cls-2" d="M45.81,16.42h0c.74.12,1.46.24,2.18.39l.18,0C47.43,16.68,46.62,16.54,45.81,16.42Z"/><path class="cls-2" d="M37.21,15.9h0Z"/><path class="cls-2" d="M59.87,45.41v.08h0Z"/><path class="cls-2" d="M66.53,44.72c-1.79.65-3.55,1.39-5.28,2.17h0C63,46.11,64.74,45.37,66.53,44.72Z"/><path class="cls-2" d="M60.66,21.38h0l-.06,0Z"/><path class="cls-2" d="M53.16,26.2l-.21.08h0Z"/><path class="cls-2" d="M34.39,16.07h0c.66-.06,1.32-.1,2-.13h0C35.73,16,35.06,16,34.39,16.07Z"/><path class="cls-2" d="M30.78,16.49c.94-.15,1.86-.26,2.78-.35h0C32.65,16.23,31.72,16.34,30.78,16.49Z"/><path class="cls-2" d="M61.8,27.64a3.73,3.73,0,0,0-.3-.26l.12.1Z"/><path class="cls-2" d="M75,35.33h0l.33.68h0Z"/><path class="cls-2" d="M63.16,29.58h0a2.47,2.47,0,0,1,.11.36h0l0-.17h0C63.19,29.71,63.18,29.65,63.16,29.58Z"/><path class="cls-2" d="M74.28,34.07h0c.17.28.33.57.48.86h0C74.6,34.63,74.44,34.35,74.28,34.07Z"/><path class="cls-2" d="M73.53,32.86h0c.13.21.26.41.38.62v0Z"/><path class="cls-2" d="M63.13,29.52a.89.89,0,0,0-.08-.17,1.6,1.6,0,0,0-.1-.23h0A3,3,0,0,1,63.13,29.52Z"/><path class="cls-2" d="M75.58,36.6h0l.29.69v0Z"/><path class="cls-2" d="M60.63,26.81c-.12-.07-.24-.14-.37-.2a.05.05,0,0,1,0,0Z"/><path class="cls-2" d="M75.51,36.45v0l0,0h0Z"/><path class="cls-2" d="M63.3,30.09h0a4.63,4.63,0,0,1,.07.52A4.18,4.18,0,0,0,63.3,30.09Z"/><path class="cls-2" d="M65.6,24.58l.41.3,0,0Z"/><path class="cls-2" d="M62.63,22.53l.09,0-.2-.13Z"/><path class="cls-2" d="M76.09,37.88h0c.07.2.13.4.2.6h0C76.22,38.28,76.16,38.08,76.09,37.88Z"/><path class="cls-2" d="M61.48,27.36l-.29-.2.15.1A1.21,1.21,0,0,0,61.48,27.36Z"/><path class="cls-2" d="M70.67,29.17l0,0,.65.75v0Z"/><path class="cls-2" d="M66.55,25.3l0,0q.69.55,1.35,1.14l.11.09C67.55,26.12,67.05,25.71,66.55,25.3Z"/><path class="cls-2" d="M72.15,31l0,0,.25.32h0A3,3,0,0,0,72.15,31Z"/><path class="cls-2" d="M62.86,29a.41.41,0,0,0-.07-.11l-.09-.17h0Z"/><path class="cls-3" d="M24.8,20.75h0c-.2.09-.41.17-.6.27h0C24.39,20.92,24.6,20.84,24.8,20.75Z"/><path class="cls-3" d="M23.72,21.26l-.4.22h0Z"/><path class="cls-3" d="M26,20.36l.48-.11-.48.11a8.78,8.78,0,0,0-.91.29h0A8.78,8.78,0,0,1,26,20.36Z"/><path class="cls-3" d="M26.54,20.23l-.08,0,.32-.07Z"/><path class="cls-3" d="M32.23,20.8c-.24-.11-.49-.22-.75-.31h0c.26.09.51.2.75.31Z"/><path class="cls-3" d="M31.3,20.42h0a7.85,7.85,0,0,0-1-.25h0A7.85,7.85,0,0,1,31.3,20.42Z"/><path class="cls-3" d="M30,20.13h0c-.28,0-.56-.07-.85-.09h0C29.47,20.06,29.76,20.09,30,20.13Z"/><path class="cls-3" d="M33.17,21.36a6.12,6.12,0,0,0-.69-.43h0a8,8,0,0,1,.69.43Z"/><path class="cls-3" d="M34.44,22.69h0c-.14-.2-.27-.4-.43-.59h0A6.36,6.36,0,0,1,34.44,22.69Z"/><path class="cls-3" d="M34,22.09a4.89,4.89,0,0,0-.71-.65h0a5.56,5.56,0,0,1,.72.65Z"/><path class="cls-3" d="M28.86,20a11.38,11.38,0,0,0-1.16,0,11.38,11.38,0,0,1,1.16,0Z"/><path class="cls-4" d="M27.77,32.41l-.28.05Z"/><path class="cls-4" d="M25.59,32.64a8.76,8.76,0,0,1-1-.07A8.76,8.76,0,0,0,25.59,32.64Z"/><polygon class="cls-5" points="34.01 22.1 34 22.09 34.01 22.1 34.01 22.1"/><path class="cls-6" d="M34.61,23l0,0,0,0Z"/><path class="cls-7" d="M22.41,32l.26.12a7.2,7.2,0,0,0,1.89.5,8.76,8.76,0,0,0,1,.07,10,10,0,0,0,1.08,0l.58-.08.24,0,.28-.05h0l.54-.14.33-.09a11.17,11.17,0,0,0,3.87-2.13,6.58,6.58,0,0,0,2.62-5.44c0-.1,0-.2,0-.3a3.39,3.39,0,0,0-.13-.55,3.66,3.66,0,0,0-.25-.62,1.24,1.24,0,0,1-.1-.2l0,0,0-.07,0-.05a.76.76,0,0,1-.08-.11A6.36,6.36,0,0,0,34,22.1h0a5.56,5.56,0,0,0-.72-.65l-.11-.08a8,8,0,0,0-.69-.43l-.25-.13c-.24-.11-.49-.22-.75-.31l-.18-.07a7.85,7.85,0,0,0-1-.25l-.26,0c-.27,0-.56-.07-.85-.09H29.1l-.24,0a11.38,11.38,0,0,0-1.16,0l-.76.1-.16,0h0l-.32.07-.48.11a8.78,8.78,0,0,0-.91.29l-.09,0-.18.07c-.2.09-.41.17-.61.27l-.09,0-.18.09-.2.11-.4.22-.15.08a9.47,9.47,0,0,0-.8.56c-.25,3.13-.46,6.3-.6,9.48a2.07,2.07,0,0,0,.25.15Z"/><path class="cls-3" d="M31.06,36.78a6.25,6.25,0,0,0-1,.1h0A6.25,6.25,0,0,1,31.06,36.78Z"/><path class="cls-8" d="M23.13,44.32h0v.12h0Z"/><path class="cls-8" d="M23.14,44Z"/><path class="cls-8" d="M23.24,43.18s0,0,0,.08h0s0,0,0-.08Z"/><path class="cls-9" d="M23.13,44.44h0c0,.11,0,.22,0,.33a3.57,3.57,0,0,0,.07.56,3.57,3.57,0,0,1-.07-.56C23.13,44.66,23.13,44.55,23.13,44.44Z"/><path class="cls-9" d="M23.39,46a.75.75,0,0,1-.05-.16.75.75,0,0,0,.05.16.78.78,0,0,0,.05.14l0,.07h0C23.45,46.17,23.41,46.11,23.39,46Z"/><path class="cls-8" d="M23.71,46.81a4.87,4.87,0,0,1-.24-.57h0a4.87,4.87,0,0,0,.24.57,4.33,4.33,0,0,0,.31.51h0A4.33,4.33,0,0,1,23.71,46.81Z"/><path class="cls-8" d="M25.33,48.65Z"/><path class="cls-10" d="M25.31,48.64Z"/><path class="cls-10" d="M24,47.32h0l0,.06h0Z"/><path class="cls-10" d="M24.69,48.13a4.19,4.19,0,0,0,.45.39h0a4.19,4.19,0,0,1-.45-.39Z"/><path class="cls-10" d="M24.28,47.68h0c.09.11.19.23.29.33h0Z"/><path class="cls-11" d="M24.57,48l0,.05h0l0,0Z"/><path class="cls-3" d="M35.48,38.17a5.09,5.09,0,0,0-.64-.48h0a6.31,6.31,0,0,0-.73-.38h0a6.05,6.05,0,0,1,1.38.86Z"/><path class="cls-3" d="M36.16,38.88h0a4.86,4.86,0,0,0-.53-.58h0A4.86,4.86,0,0,1,36.16,38.88Z"/><path class="cls-3" d="M33.92,37.23A6,6,0,0,0,33.1,37h0a8.08,8.08,0,0,0-.88-.14h0a6.31,6.31,0,0,1,1.7.41Z"/><path class="cls-3" d="M36.35,39.18c-.05-.07-.09-.16-.14-.23s.09.16.14.23Z"/><path class="cls-3" d="M53.68,26h0l-.22.07h0Z"/><path class="cls-3" d="M53,26.28l-.23.09h0l.23-.09Z"/><polygon class="cls-3" points="54.44 25.86 54.44 25.86 54.44 25.86 54.43 25.87 54.44 25.86"/><path class="cls-3" d="M55,25.78l-.27,0,.27,0Z"/><path class="cls-7" d="M35.27,46.33a9,9,0,0,0,.75-1,8.85,8.85,0,0,0,.57-1.1A7,7,0,0,0,37,43.05a6,6,0,0,0,.13-1.74L37,40.86a3.75,3.75,0,0,0-.09-.39,4.46,4.46,0,0,0-.28-.75l0,0-.06-.14c-.07-.12-.15-.24-.23-.36s-.09-.16-.14-.23l0-.07h0a4.86,4.86,0,0,0-.53-.58.86.86,0,0,1-.14-.13,6.05,6.05,0,0,0-1.38-.86l-.19-.08a6.31,6.31,0,0,0-1.7-.41l-.23,0a7.42,7.42,0,0,0-.82,0h-.11a6.25,6.25,0,0,0-1,.1h0a8.46,8.46,0,0,0-1,.22l-.38.12a8.55,8.55,0,0,0-4.23,3.07,9.72,9.72,0,0,0-.65,1.06,8.19,8.19,0,0,0-.45,1.12,5.68,5.68,0,0,0-.18.71s0,0,0,.08c0,.23-.07.46-.09.7h0c0,.12,0,.23,0,.35v.12c0,.11,0,.22,0,.33a3.57,3.57,0,0,0,.07.56,3.53,3.53,0,0,0,.13.54.75.75,0,0,0,.05.16c0,.08.06.14.08.21a4.87,4.87,0,0,0,.24.57,4.33,4.33,0,0,0,.31.51l0,.06h0l.22.29.29.34,0,0a.27.27,0,0,0,.08.07,4.19,4.19,0,0,0,.45.39l0,0,.14.1h0c.13.09.27.17.41.25l.05,0,.12.07c.21.1.42.2.64.28h.06q.31.11.63.18l.17,0h0a4.68,4.68,0,0,0,.54.07h1c.27,0,.55,0,.82-.09a7.58,7.58,0,0,0,1.68-.48,6,6,0,0,0,.63-.28,9.73,9.73,0,0,0,1.72-1.07A10.34,10.34,0,0,0,35.27,46.33Z"/><polygon class="cls-12" points="36.16 38.88 36.16 38.88 36.16 38.88 36.16 38.88"/><path class="cls-6" d="M36.66,39.72l0,0,0,0Z"/><polygon class="cls-4" points="28.99 49.62 28.99 49.62 28.99 49.62 28.99 49.62"/><path class="cls-4" d="M28.13,49.6h0Z"/><path class="cls-4" d="M25.74,48.91l.06,0-.05,0Z"/><path class="cls-4" d="M27.42,49.51h0Z"/><path class="cls-4" d="M26.57,49.29l.06,0h-.06Z"/><path class="cls-4" d="M25.17,48.54l.14.1h0Z"/><path class="cls-3" d="M25.21,59.44l-.14,0,.19,0Z"/><path class="cls-3" d="M62.26,28.11a3.33,3.33,0,0,0-.25-.28h0l.29.3Z"/><path class="cls-3" d="M61.62,27.48l-.12-.1,0,0a1.21,1.21,0,0,1-.14-.1Z"/><path class="cls-3" d="M60.92,27l-.2-.11,0,0,.27.16Z"/><path class="cls-3" d="M56.86,25.73l-.27,0h0l.27,0Z"/><path class="cls-3" d="M57.74,25.82l-.27,0h0l.29,0Z"/><path class="cls-3" d="M58.56,26l-.19,0h0l.24.06Z"/><path class="cls-3" d="M59.49,26.27l-.17-.06h0l.26.1Z"/><path class="cls-3" d="M60.3,26.63a.05.05,0,0,0,0,0L60,26.5h0Z"/><path class="cls-3" d="M62.61,28.55v0l-.08-.1,0,0A.76.76,0,0,1,62.61,28.55Z"/><path class="cls-3" d="M46,45.25h0l-.21.05Z"/><path class="cls-13" d="M42,47.52l0,0,0,0Z"/><polygon class="cls-10" points="40.16 50.91 40.16 50.91 40.16 50.92 40.16 50.92 40.16 50.91"/><path class="cls-8" d="M40.16,50.92h0l0,.21h0Z"/><path class="cls-12" d="M62.5,28.41l0,0a2.6,2.6,0,0,0-.26-.32h0Z"/><path class="cls-12" d="M62.69,28.66h0l-.1-.14v0Z"/><path class="cls-6" d="M63.15,29.58h0a1.75,1.75,0,0,0-.11-.24.89.89,0,0,1,.08.17A.14.14,0,0,1,63.15,29.58Z"/><path class="cls-6" d="M63,29.12A.54.54,0,0,0,62.9,29a.31.31,0,0,0,.05.1Z"/><path class="cls-14" d="M63.3,30.08s0-.09,0-.14h0S63.29,30,63.3,30.08Z"/><path class="cls-14" d="M63.21,29.77h0c0-.06,0-.12-.05-.18h0C63.18,29.65,63.19,29.71,63.21,29.77Z"/><path class="cls-7" d="M56.74,36.61l.16,0,.34-.06a10.91,10.91,0,0,0,1.19-.32,7.67,7.67,0,0,0,4.33-3.16,4.32,4.32,0,0,0,.6-1.79c0-.13,0-.26,0-.39a2.44,2.44,0,0,0,0-.27,4.63,4.63,0,0,0-.07-.52h0s0-.09,0-.14a2.47,2.47,0,0,0-.11-.36.14.14,0,0,0,0-.06,3,3,0,0,0-.18-.41.31.31,0,0,1-.05-.1l0-.06-.17-.29-.08-.11a.76.76,0,0,0-.11-.14l-.22-.29-.29-.3-.19-.18-.18-.16-.28-.22-.15-.1L60.94,27l-.27-.16,0,0-.33-.18L60,26.49l-.45-.19-.26-.1L59,26.11c-.14,0-.27-.09-.41-.12l-.24-.06-.58-.11-.29,0-.6-.05-.27,0a8.84,8.84,0,0,0-.89,0c-.23,0-.46,0-.68.06l-.27,0-.14,0-.17,0h0c-.25,0-.5.11-.75.17l-.22.07-.3.09-.21.08-.23.09a7.07,7.07,0,0,0-.83.4l-.2.11c-.25.15-.49.29-.72.46a5.29,5.29,0,0,0-2.38,4.55.66.66,0,0,0,0,.14,4.49,4.49,0,0,0,1.14,2.54,5.25,5.25,0,0,0,.85.78,6.77,6.77,0,0,0,1.62.86,9,9,0,0,0,4.06.47Z"/><path class="cls-8" d="M40.8,54.74h0l.11.16h0Z"/><polygon class="cls-8" points="42.12 56.14 42.13 56.14 42.13 56.14 42.12 56.14"/><path class="cls-10" d="M40.91,54.9,41,55h0l-.08-.13Z"/><path class="cls-10" d="M41.24,55.34h0a2.68,2.68,0,0,0,.28.3h0A2.68,2.68,0,0,1,41.24,55.34Z"/><path class="cls-15" d="M50.63,17.41h0l.79.22-.07,0Z"/><path class="cls-15" d="M45.07,16.32h0l.83.11h0Z"/><path class="cls-15" d="M66.06,24.92l0,0,.56.44,0,0Z"/><path class="cls-15" d="M69.55,28h0l.54.56,0-.05C69.87,28.32,69.71,28.16,69.55,28Z"/><path class="cls-15" d="M48.21,16.84l-.18,0,.37.07-.14,0Z"/><path class="cls-15" d="M64.31,23.63l0,0,.59.42-.06,0Z"/><path class="cls-15" d="M62.45,22.41a1,1,0,0,1-.17-.1l.35.22-.11-.08Z"/><path class="cls-15" d="M60,21.05,60,21l.69.36,0,0Z"/><path class="cls-15" d="M58,20l0,0,.71.34-.07,0Z"/><path class="cls-15" d="M55.79,19.09l-.2-.07.42.16-.15-.06Z"/><path class="cls-15" d="M53,18.1l-.07,0,.78.25h0Z"/><path class="cls-15" d="M68,26.55l-.11-.09.23.19,0,0Z"/><path class="cls-15" d="M33.57,16.14h0l.84-.07h0Z"/><path class="cls-15" d="M30.18,16.59l.6-.1-.59.09Z"/><path class="cls-15" d="M36.4,15.94h0l.83,0h0Z"/><path class="cls-15" d="M42.45,16h0l.84.08h0Z"/><path class="cls-15" d="M39.82,15.89h0Z"/><path class="cls-12" d="M32,68.65h0l-.17.19h0Z"/><path class="cls-5" d="M31.84,68.83l-.23.27c.07-.09.16-.18.24-.27Z"/><path class="cls-16" d="M30.9,69.91l-.34.41h0Z"/><path class="cls-17" d="M30.56,70.33h0c-.21.25-.4.5-.6.75h0C30.17,70.83,30.36,70.58,30.56,70.33Z"/><path class="cls-18" d="M30,71.07h0c-.2.24-.39.49-.59.74h0Z"/><path class="cls-19" d="M29.37,71.81c-.16.21-.33.41-.5.62v0l.51-.64Z"/><path class="cls-4" d="M44.36,57c-.26.2-.5.42-.76.62h0C43.86,57.4,44.1,57.18,44.36,57Z"/><path class="cls-4" d="M42.2,56.2c.11.07.23.12.34.18h0C42.43,56.32,42.31,56.27,42.2,56.2Z"/><path class="cls-4" d="M42.81,56.53h0a4.34,4.34,0,0,0,.5.2h0A3,3,0,0,1,42.81,56.53Z"/><path class="cls-4" d="M42.13,56.14l.07.06-.07-.06Z"/><path class="cls-4" d="M41.52,55.64l0,0,0,0Z"/><path class="cls-7" d="M50.39,52.74l.15-.09,0,0c.73-.46,1.47-.92,2.21-1.36A5.27,5.27,0,0,0,53,49.45C52.7,46.76,50.3,45,47.3,45.1a6.52,6.52,0,0,0-1,.1l-.29,0h0l-.26.06h0a4.84,4.84,0,0,0-.65.19,8,8,0,0,0-1.79.86c-.24.17-.48.34-.7.53l-.36.33c-.1.1-.21.19-.31.3l0,0,0,0,0,0a7,7,0,0,0-1.54,2.62,5.23,5.23,0,0,0-.18.68h0l0,.22a2,2,0,0,0-.05.24,5.63,5.63,0,0,0,0,1.16,3.4,3.4,0,0,0,.06.46,5.34,5.34,0,0,0,.21.81,3.48,3.48,0,0,0,.21.48l.13.24.12.21.11.16L41,55l.21.26,0,.05a2.68,2.68,0,0,0,.28.3l0,0a4,4,0,0,0,.31.27l.25.19h0l.07.06c.11.07.23.12.34.18s.18.11.27.15a3,3,0,0,0,.5.19l.25.1a5.39,5.39,0,0,0,.8.16q2-1.54,4.14-3Z"/><path class="cls-11" d="M70.17,28.64l.48.51,0,0Z"/><path class="cls-10" d="M71.29,29.88v0c.29.34.56.68.83,1l0,0C71.87,30.59,71.59,30.24,71.29,29.88Z"/><path class="cls-8" d="M75.52,36.46h0s0,.08,0,.13h0Z"/><path class="cls-8" d="M75.29,36h0c.06.15.14.29.2.43v0Z"/><path class="cls-8" d="M75.86,37.29c.06.15.12.3.17.45l-.18-.47Z"/><path class="cls-8" d="M73.91,33.47l.22.35c-.08-.13-.16-.25-.23-.38Z"/><path class="cls-8" d="M74.75,34.91h0l.22.4h0Z"/><path class="cls-9" d="M77.06,41.66h0c.35-.08.71-.13,1.06-.2h0C77.77,41.53,77.41,41.58,77.06,41.66Z"/><path class="cls-20" d="M60.37,47.27h0a3.22,3.22,0,0,1-.21-.51,1.08,1.08,0,0,1-.08-.19h0s0-.11,0-.17,0-.17-.05-.26a3.86,3.86,0,0,1-.1-.49h0s0-.11,0-.16v-.08h0v-.07c-.06-2.6,2.25-5,5.41-5.58l.15,0,.16,0h0c.15,0,.3,0,.46-.06h0l.34,0h.28a8,8,0,0,1,3.81.84,6.41,6.41,0,0,1,1.42,1c.16.15.3.32.44.48a1.71,1.71,0,0,1-.11-.14l-.18-.18,1,1c1.33-.35,2.65-.68,4-1-.07-.52-.18-1-.3-1.56l-.14-.53c-.1-.36-.21-.72-.33-1.09-.07-.2-.13-.4-.2-.6L76,37.74c0-.15-.11-.3-.17-.45l-.29-.69c0-.05,0-.09,0-.13l0,0c-.06-.14-.14-.28-.2-.43L75,35.32l-.22-.4c-.15-.29-.31-.58-.48-.86,0-.08-.09-.16-.14-.24l-.22-.35c-.12-.21-.25-.41-.38-.62-.36-.54-.74-1.08-1.15-1.61l-.25-.32c-.27-.34-.54-.68-.83-1l-.65-.75-.48-.51-.1-.1L69.53,28c-.45-.45-.91-.89-1.38-1.33l-.23-.19q-.66-.59-1.35-1.14L66,24.88l-.41-.3L64.87,24l-.59-.42c-.51-.35-1-.69-1.56-1l-.09,0-.35-.22c-.52-.31-1.06-.62-1.6-.92h0L60,21l-1.34-.68L57.92,20c-.63-.28-1.26-.56-1.91-.82L55.59,19c-.61-.24-1.24-.47-1.88-.69l-.78-.25c-.51-.16-1-.32-1.55-.46l-.79-.22c-.72-.19-1.45-.36-2.19-.52L48,16.81c-.72-.15-1.44-.27-2.18-.39L45,16.31c-.58-.08-1.17-.15-1.76-.2L42.42,16l-.32,0c-.71-.05-1.43-.1-2.16-.12H37.21l-.83,0c-.66,0-1.32.07-2,.13l-.84.07c-.92.09-1.84.2-2.78.35l-.6.1c-.82.13-1.62.29-2.43.46l-.62.14c-.75.18-1.5.38-2.23.61s-1.47.45-2.2.71h0l-.33,3.61a9.47,9.47,0,0,1,.8-.56l.15-.08.4-.22.2-.11.18-.09.1,0c.19-.1.4-.18.6-.27l.18-.07.09,0a8.78,8.78,0,0,1,.91-.29l.48-.11.08,0,.24-.05.16,0,.76-.1a11.38,11.38,0,0,1,1.16,0h0l.24,0h.08c.29,0,.57.05.85.09l.26,0a7.85,7.85,0,0,1,1,.25h0l.18.07h0c.26.09.51.2.75.31h0l.25.13h0a6.12,6.12,0,0,1,.69.43h0l.11.08h0a4.89,4.89,0,0,1,.71.65h0c.16.19.29.39.43.59a.76.76,0,0,0,.08.11l0,.05,0,.07,0,0a1.74,1.74,0,0,0,.1.19,3.66,3.66,0,0,1,.25.62,3.39,3.39,0,0,1,.13.55c0,.1,0,.2,0,.3a6.58,6.58,0,0,1-2.62,5.44,11.17,11.17,0,0,1-3.87,2.13l-.33.09-.54.14h0l-.28.05-.24,0-.58.08a10,10,0,0,1-1.08,0,8.76,8.76,0,0,1-1-.07,7.2,7.2,0,0,1-1.89-.5L22.41,32l-.39-.2a2.07,2.07,0,0,1-.25-.15,259.73,259.73,0,0,0,.36,29.34,7.23,7.23,0,0,1,1.12-.78l.32-.17a6.37,6.37,0,0,1,1.5-.52h0l.14,0h.11l.12,0a4.7,4.7,0,0,1,5.37,3.48l0,.12A6.64,6.64,0,0,1,31,64.1a8.32,8.32,0,0,1-.47,3.44A9.54,9.54,0,0,1,28,71.47a7.78,7.78,0,0,1-.92.71l-.41.24a5.71,5.71,0,0,1-1.77.63,4.6,4.6,0,0,1-.52.06A4.1,4.1,0,0,1,23.24,73c.11,1,.24,1.94.37,2.91q-.12,4.32-.23,8.64A1.43,1.43,0,0,0,24.79,86a1.45,1.45,0,0,0,1.42-1.42l.14-5.29a1.41,1.41,0,0,0,1,.45,1.46,1.46,0,0,0,1.42-1.42c.08-.91.12-1.82.14-2.73s0-2.1-.06-3.14v0c.17-.21.34-.41.5-.62s.39-.5.59-.74.39-.5.6-.75l.34-.41.71-.81.23-.27.17-.19c.53-.61,1.07-1.22,1.62-1.81h0v.09q0,.72,0,1.44c0,.2,0,.41,0,.61a1.42,1.42,0,1,0,2.83,0c0-.83,0-1.65.12-2.46a15.61,15.61,0,0,1,.24-1.67c.06-.25.13-.51.2-.77a1.43,1.43,0,0,0,.76,1.23,1.19,1.19,0,0,0,.46.15,1.4,1.4,0,0,0,1.56-1c.07-.44.17-.86.25-1.29.13-.69.26-1.37.43-2,.09-.38.19-.75.29-1.12l0-.11.25-.22.16-.14c.77-.65,1.56-1.29,2.35-1.91.26-.2.5-.42.76-.62a5.39,5.39,0,0,1-.8-.16h0a2.5,2.5,0,0,0-.25-.09,4.34,4.34,0,0,1-.5-.2c-.09,0-.18-.1-.27-.15s-.23-.11-.34-.18l-.07-.06h0l-.25-.19a4,4,0,0,1-.31-.27l0,0a2.68,2.68,0,0,1-.28-.3l0-.05L41,55h0l-.08-.13-.11-.16h0l-.12-.21-.13-.24a3.48,3.48,0,0,1-.21-.48,5.34,5.34,0,0,1-.21-.81,3.4,3.4,0,0,1-.06-.46,5.63,5.63,0,0,1,0-1.16c0-.08,0-.16.05-.25l0-.21h0a5.23,5.23,0,0,1,.18-.68,7,7,0,0,1,1.54-2.62l0,0,0,0,0,0h0c.1-.11.21-.2.31-.3l.36-.33c.22-.19.46-.36.7-.53a8,8,0,0,1,1.79-.86,4.84,4.84,0,0,1,.65-.19l.21-.05h0l.29,0a6.52,6.52,0,0,1,1-.1c3-.12,5.4,1.66,5.67,4.35a5.27,5.27,0,0,1-.18,1.81c.94-.56,1.9-1.09,2.87-1.61a13.82,13.82,0,0,0,.2,2v0a1.47,1.47,0,0,0,.64.82,1.51,1.51,0,0,0,.91.17,1.41,1.41,0,0,0,1.22-1.39c0-.37,0-.73,0-1.1,0-.71,0-1.42.07-2.13C59.27,47.81,59.81,47.53,60.37,47.27ZM31.49,49.05a7.58,7.58,0,0,1-1.68.48c-.27,0-.55.07-.82.09H28a5.15,5.15,0,0,1-.53-.07h0l-.17,0h0a6.29,6.29,0,0,1-.62-.17l-.06,0h0c-.22-.08-.43-.18-.64-.28h0l-.12-.07-.06,0-.4-.25h0l-.14-.1,0,0h0a4.19,4.19,0,0,1-.45-.39h0a.27.27,0,0,1-.08-.07h0l0-.05c-.1-.1-.2-.22-.29-.33h0l-.22-.29h0l0-.06a4.33,4.33,0,0,1-.31-.51,4.87,4.87,0,0,1-.24-.57l0-.07a.78.78,0,0,1-.05-.14.75.75,0,0,1-.05-.16,3.53,3.53,0,0,1-.13-.54,3.57,3.57,0,0,1-.07-.56c0-.11,0-.22,0-.33v-.12c0-.12,0-.24,0-.35h0c0-.24.05-.47.09-.7h0s0,0,0-.08h0a5.68,5.68,0,0,1,.18-.71,8.19,8.19,0,0,1,.45-1.12,9.72,9.72,0,0,1,.65-1.06,8.55,8.55,0,0,1,4.23-3.07l.38-.12a8.46,8.46,0,0,1,1-.22h0a6.25,6.25,0,0,1,1-.1h.11a7.42,7.42,0,0,1,.82,0l.23,0h0a8.08,8.08,0,0,1,.88.14h0a6,6,0,0,1,.82.26h0l.19.08h0a6.31,6.31,0,0,1,.73.38h0a5.09,5.09,0,0,1,.64.48l.15.13a4.86,4.86,0,0,1,.53.58h0l0,.07c0,.07.09.16.14.23s.16.24.23.36h0l.06.14,0,0a4.46,4.46,0,0,1,.28.75,3.75,3.75,0,0,1,.09.39l.06.45A6,6,0,0,1,37,43.05a7,7,0,0,1-.37,1.15A8.85,8.85,0,0,1,36,45.3a9,9,0,0,1-.75,1,10.34,10.34,0,0,1-1.43,1.37,9.73,9.73,0,0,1-1.72,1.07A6,6,0,0,1,31.49,49.05ZM52.21,36.21a6.77,6.77,0,0,1-1.62-.86,5.25,5.25,0,0,1-.85-.78A4.49,4.49,0,0,1,48.6,32a.66.66,0,0,1,0-.14A5.29,5.29,0,0,1,51,27.34c.23-.17.47-.31.72-.46l.2-.11a7.07,7.07,0,0,1,.83-.4h0l.23-.09.21-.08.3-.09.22-.07.11,0,.65-.14.17,0,.14,0,.27,0h0c.22,0,.45-.05.68-.06a8.84,8.84,0,0,1,.89,0h0l.27,0h0l.6.05h0l.27,0h0l.58.11h0l.19,0,.42.13.32.09h0l.17.06.55.23.22.11c.13.06.25.13.37.2l0,0,0,0,.2.11,0,0,.25.17.29.2,0,0a3.73,3.73,0,0,1,.3.26l.19.18h0a3.33,3.33,0,0,1,.25.28,2.6,2.6,0,0,1,.26.32l.08.1.1.14.09.17a.41.41,0,0,1,.07.11l0,.06a.54.54,0,0,1,.05.11,1.6,1.6,0,0,1,.1.23,1.75,1.75,0,0,1,.11.24c0,.06,0,.12.05.18l0,.17s0,.09,0,.14h0a4.18,4.18,0,0,1,.07.51,2.44,2.44,0,0,1,0,.27c0,.13,0,.26,0,.39a4.32,4.32,0,0,1-.6,1.79,7.67,7.67,0,0,1-4.33,3.16,10.91,10.91,0,0,1-1.19.32l-.34.06-.16,0-.47.07A9,9,0,0,1,52.21,36.21Z"/><path class="cls-20" d="M72.6,42.25l-.12-.17a3.94,3.94,0,0,1,.39.61,2.79,2.79,0,0,0-.19-.33S72.62,42.29,72.6,42.25Z"/><path class="cls-7" d="M24.87,73.05a5.71,5.71,0,0,0,1.77-.63l.41-.24a7.78,7.78,0,0,0,.92-.71,9.54,9.54,0,0,0,2.58-3.93A8.32,8.32,0,0,0,31,64.1a6.64,6.64,0,0,0-.18-1.1l0-.12a4.7,4.7,0,0,0-5.37-3.48l-.12,0h-.06l-.19,0h0a6.37,6.37,0,0,0-1.5.52l-.32.17a7.23,7.23,0,0,0-1.12.78q.4,6,1.11,12.09a4.1,4.1,0,0,0,1.11.08A4.6,4.6,0,0,0,24.87,73.05Z"/><path class="cls-4" d="M50.54,52.65l.06.06c.74-.47,1.48-1,2.24-1.4l-.05-.05c-.74.44-1.48.9-2.21,1.36Z"/><path class="cls-21" d="M50.83,54.76l.06,0,0,0Z"/><path class="cls-21" d="M44.43,57q1.14-.87,2.31-1.71l.75-.52c.54-.38,1.09-.76,1.65-1.13l.41-.27.36-.24.69-.43-.06-.06-.15.09c-.88.57-1.75,1.16-2.62,1.76l-.7.5c-.91.64-1.82,1.3-2.7,2h0l0,.05h0l1.32,1.36h0L44.42,57Z"/><path class="cls-3" d="M66.05,39.64c-.16,0-.31,0-.46.06h0Z"/><path class="cls-9" d="M59.87,45.49s0,.11,0,.16,0-.11,0-.17Z"/><path class="cls-9" d="M59.87,45.4v0Z"/><path class="cls-22" d="M59.87,45.4h0"/><path class="cls-9" d="M59.88,45.65a3.86,3.86,0,0,0,.1.49,3.86,3.86,0,0,1-.1-.49Z"/><path class="cls-3" d="M66.68,39.61H66.4l-.34,0,.34,0Z"/><path class="cls-9" d="M61.14,46.93l.11,0h0l-.11,0-.57.25h0Z"/><path class="cls-9" d="M60.08,46.57h0a1.08,1.08,0,0,0,.08.19h0A1.08,1.08,0,0,1,60.08,46.57Z"/><path class="cls-8" d="M60.57,47.18l-.2.09h0l.2-.09Z"/><path class="cls-8" d="M60.16,46.76a3.22,3.22,0,0,0,.21.51h0a3.22,3.22,0,0,1-.21-.51Z"/><path class="cls-4" d="M61.25,46.89l-.11,0-.57.25-.2.09.05.06h0A80.66,80.66,0,0,1,73,42.76l-.08-.07q-3.21.87-6.34,2C64.74,45.37,63,46.11,61.25,46.89Z"/><polygon class="cls-4" points="61.75 48.67 61.75 48.67 60.44 47.32 61.75 48.67"/><path class="cls-5" d="M72.24,41.78l.84.86h0l-1-1Z"/><path class="cls-12" d="M72.35,41.92c0,.06.09.1.13.16l.12.17s.06.07.08.11l.3.3.1,0-.84-.86A1.71,1.71,0,0,0,72.35,41.92Z"/><path class="cls-6" d="M72.87,42.69l.11,0-.3-.3A2.79,2.79,0,0,1,72.87,42.69Z"/><path class="cls-7" d="M72.35,41.92c-.14-.16-.28-.33-.44-.48a6.41,6.41,0,0,0-1.42-1,8,8,0,0,0-3.81-.84H66.4l-.34,0h0l-.46.06h0l-.16,0-.15,0c-3.16.59-5.47,3-5.41,5.58v.07h0v.07c0,.06,0,.11,0,.17h0a3.86,3.86,0,0,0,.1.49c0,.09,0,.18.05.26s0,.12,0,.17a1.08,1.08,0,0,0,.08.19,3.22,3.22,0,0,0,.21.51l.2-.09.57-.25.11,0c1.73-.78,3.49-1.52,5.28-2.17q3.14-1.15,6.34-2a3.94,3.94,0,0,0-.39-.61C72.44,42,72.39,42,72.35,41.92Z"/><path class="cls-23" d="M76,26.42l.19.18c0,.07.12.13.18.2l1.07,1.11c-.09-.11-.19-.21-.29-.32-.29-.32-.57-.65-.88-1L75,25.25l.24.27L74.68,25c.15.15.29.31.44.47s.49.51.72.77A2.09,2.09,0,0,1,76,26.42Z"/><path class="cls-24" d="M24.9,17.8c.73-.23,1.48-.43,2.23-.61l.62-.14c.81-.17,1.61-.33,2.43-.46h0l.59-.09c.94-.15,1.87-.26,2.79-.35l.82-.07c.67-.06,1.34-.1,2-.13l.8,0h2.74c.73,0,1.45.07,2.16.12l.35,0,.76.07c.63.06,1.25.13,1.86.22l.74.1c.81.12,1.62.26,2.4.42h0l.14,0c.74.16,1.47.33,2.19.52h0l.68.19.07,0c.52.14,1,.3,1.55.46l.07,0,.67.22c.72.24,1.43.5,2.12.77l.07,0,.15.06c.65.26,1.28.54,1.91.82l0,0,.6.29.07,0L60,21l.07,0,.58.31.06,0c.54.3,1.08.61,1.6.92a1,1,0,0,0,.17.1l.07,0,.2.13c.53.34,1.05.68,1.56,1l0,0,.5.36.06,0,.73.55.46.34.49.38c.5.41,1,.82,1.48,1.25l.08.07,0,0c.47.44.93.88,1.38,1.33h0c.16.17.32.33.47.5l0,.05.1.1.5.53.62.71c.3.36.58.71.86,1.07a3,3,0,0,1,.22.28h0c.41.53.79,1.07,1.15,1.61h0l.37.58c.07.13.15.25.23.38s.1.16.14.24h0c.16.28.32.56.47.84l.22.42.32.66.22.46h0l.06.14.27.67.18.47.06.14h0c.07.2.13.4.2.6h0c.12.37.23.73.33,1.09l.14.53c.12.52.23,1,.3,1.56.35-.08.71-.13,1.06-.2.84-.17,1.68-.35,2.53-.49s1.78-.28,2.67-.4c-.09-.57-.21-1.16-.35-1.74,0-.19-.1-.37-.15-.56-.11-.42-.24-.85-.39-1.28-.07-.21-.13-.41-.21-.62s-.18-.47-.27-.7l-.32-.77-.09-.21,0-.08c-.06-.14-.14-.28-.2-.41s-.24-.51-.37-.76-.19-.36-.29-.54-.34-.62-.52-.93l-.43-.7c-.17-.27-.34-.54-.52-.81l-.27-.41-.71-1-.2-.28c-.35-.45-.71-.91-1.08-1.36l-.19-.22c-.29-.34-.58-.67-.88-1s-.48-.52-.72-.77c-9.54-10-26.45-17.62-46.7-14.23-.82.14-1.64.29-2.47.46s-1.71.42-2.57.65q-.37,3.07-.68,6.2h0C23.43,18.25,24.16,18,24.9,17.8Z"/><path class="cls-25" d="M49.55,53.38l-.41.27c-.56.37-1.11.75-1.65,1.13l-.75.52q-1.17.84-2.31,1.71h0l1.32,1.36h0c.76-.58,1.54-1.15,2.32-1.71l.19-.15.06,0,.5-.35c.54-.38,1.09-.76,1.65-1.13l.37-.25,0,0Z"/><path class="cls-25" d="M44.41,57l0-.05h0c-.26.2-.5.42-.76.62-.79.63-1.58,1.26-2.35,1.91l-.16.14,0,.05-.13.1-.2.18c-.1.37-.2.74-.29,1.12l.85.88.34-.28.62-.53.77-.66.08-.06c.65-.55,1.32-1.09,2-1.61.19-.15.37-.31.56-.45h0L44.42,57Z"/><path class="cls-13" d="M40.52,61.1c-.17.68-.3,1.36-.43,2l.22-.2.79-.72.61-.53-.34.28Z"/><path class="cls-13" d="M37.06,64.07c-.07.26-.14.52-.2.77a15.61,15.61,0,0,0-.24,1.67l.3-.3.5-.51.07-.07.33-.33A1.43,1.43,0,0,1,37.06,64.07Z"/><path class="cls-13" d="M41.14,59.7l0-.05-.25.22,0,.11.2-.18Z"/><path class="cls-13" d="M33.18,67.4l-.21.24.69.72q0-.72,0-1.44h0Z"/><path class="cls-26" d="M33.66,68.36,33,67.64l.21-.24.43-.47h0v-.09c-.56.6-1.09,1.21-1.63,1.82l-.15.18c-.08.09-.17.18-.24.27l-.71.81-.34.42c-.2.25-.39.5-.59.74l-.59.74-.51.64c.06,1,.08,2.09.06,3.14l.09-.13c.56-.74,1.12-1.48,1.7-2.21.07-.09.13-.18.2-.26l.64-.8.11-.13c.65-.8,1.33-1.58,2-2.35l.11-.13a1.44,1.44,0,0,1-.12-.61C33.67,68.77,33.66,68.56,33.66,68.36Z"/><path class="cls-3" d="M60.42,47.33l-.05-.06h0c-.56.26-1.1.54-1.65.81,0,.71-.06,1.42-.07,2.13,1-.52,2.06-1,3.11-1.53h0l-1.31-1.35Z"/><path class="cls-3" d="M55.66,49.65c-1,.52-1.93,1.05-2.87,1.61l.05.05c-.76.45-1.5.93-2.24,1.4l-.69.43-.36.24,1.31,1.36,0,0,.34-.21c1-.64,2-1.26,3-1.85.55-.33,1.13-.63,1.69-.95v0A13.82,13.82,0,0,1,55.66,49.65Z"/><path class="cls-3" d="M77.14,41.73l-.08-.07h0c-1.33.29-2.65.62-4,1h0l-.1,0-.11,0,.08.07a80.66,80.66,0,0,0-12.51,4.56l1.31,1.35h0A80,80,0,0,1,74.3,44.12c1.39-.38,2.79-.73,4.2-1l0,0-1.28-1.32Z"/><path class="cls-15" d="M83.45,40.65h0l-.08-.09c-.89.12-1.78.25-2.67.4s-1.69.32-2.53.49c-.35.07-.71.12-1.06.2l.08.07h0l1.28,1.32h0l0,0c1.19-.25,2.39-.48,3.59-.68.89-.15,1.78-.28,2.68-.39l-.09-.09Z"/><path class="cls-27" d="M76.41,26.8c-.06-.07-.13-.13-.18-.2L76,26.42c.09.09.17.19.26.29l.25.29c0,.07.11.13.17.2l.19.22c.35.42.68.85,1,1.27l.07.09.2.28.71,1,.27.41.14.2,0,.07,0,0,.14.14.12.2.22.33,1.27,1.32L81,32.46c-.08-.11-.15-.23-.23-.35-.38-.57-.77-1.14-1.19-1.71l-.1-.12c-.41-.54-.84-1.08-1.29-1.61l-.25-.3-.12-.13-.11-.13c-.15-.18-.32-.35-.48-.52.1.11.2.21.29.32Z"/><path class="cls-28" d="M79.64,31.1l-.12-.2-.14-.14c.11.17.2.34.31.51l.43.7.3.53c.08.13.15.27.22.4s.2.36.29.54.25.5.37.76.14.27.2.41l0,.08.09.21.32.77c.09.23.19.47.27.7,0,.06,0,.12.08.19l.13.13a1.46,1.46,0,0,0,.07.19c.19.57.36,1.14.51,1.7,0,.1.06.21.08.31.12.5.23,1,.31,1.47l1.31,1.35c-.08-.48-.18-1-.3-1.45,0-.11,0-.21-.08-.32-.15-.56-.32-1.13-.51-1.69L83.73,38c-.21-.57-.44-1.15-.7-1.73l0-.08c-.27-.58-.57-1.17-.88-1.76L82,34.14c-.26-.46-.54-.93-.83-1.39l-1.27-1.32Z"/><path class="cls-29" d="M83.09,38.89c0-.1,0-.21-.08-.31-.15-.56-.32-1.13-.51-1.7a1.46,1.46,0,0,1-.07-.19l-.13-.13a.43.43,0,0,1,0,0c0,.13.08.25.12.38.15.43.28.86.39,1.28,0,.11.07.22.1.33s0,.15,0,.23c.14.58.26,1.17.35,1.74l.08.09h0l1.23,1.28h0l.09.09c0-.1,0-.21-.06-.31L83.4,40.36C83.32,39.88,83.21,39.39,83.09,38.89Z"/></svg>